<?xml version="1.0" encoding="utf-8"?>
<!-- Generator: Adobe Illustrator 26.5.0, SVG Export Plug-In . SVG Version: 6.00 Build 0)  -->
<svg version="1.1" id="Layer_1" xmlns="http://www.w3.org/2000/svg" xmlns:xlink="http://www.w3.org/1999/xlink" x="0px" y="0px"
	 width="113.7px" height="100.8px" viewBox="0 0 113.7 100.8" style="enable-background:new 0 0 113.7 100.8;" xml:space="preserve"
	>
<style type="text/css">
	.st0{fill:#FBFCFC;}
	.st1{fill:#D9B972;}
	.st2{fill:#E4D7B4;}
	.st3{fill:#BAAB71;}
	.st4{fill:#C2AD8D;}
	.st5{fill:#AF5B56;}
	.st6{fill:#445B21;}
	.st7{fill:#547127;}
	.st8{fill:#6F8D38;}
	.st9{fill:#695646;}
	.st10{fill:#A1855A;}
	.st11{fill:#3A4E1B;}
	.st12{fill:#6F5940;}
	.st13{fill:#D9B972;stroke:#D9B972;stroke-width:1.594;}
</style>
<g id="Group_1577" transform="translate(-326.479 -318.238)">
	<g id="Group_1446" transform="translate(329.31 345.217)">
		<path id="Path_6389" class="st0" d="M9,0.6C8.8-0.1,9.7,0.2,10.2,0l0.1,0.1C10.4,0.8,9.3,0.4,9,0.6z"/>
		<path id="Path_6390" class="st0" d="M5.6,17.4C5.3,13.2,5.9,9,7.5,5.1c0.3,1.4-0.6,2.7-0.4,4.1l0,0.1c-0.2,0.8-0.3,1.6-0.3,2.4
			c0,0.1,0,0.3,0,0.4c-0.2,1.4-0.2,2.9,0,4.3c0,0.1,0.1,0.3,0.1,0.4c-0.1,0.9,0,1.7,0.2,2.5l0,0.1c0.1,2.2,1.1,4.4,1.2,6.6
			c0.3,1.3-0.9,0.3-1.3,0.1C6,23.3,5.5,20.4,5.6,17.4z"/>
		<path id="Path_6391" class="st0" d="M8.6,27.4c0.4,0.7,0.8,1.5,1,2.3C8.7,29.5,7.7,28,8.6,27.4z"/>
		<path id="Path_6392" class="st0" d="M0.1,27.5C0.6,27.3,0,28,0.3,28.2c0.3,0.3,0,0.7-0.2,0.9C0,28.6-0.1,28,0.1,27.5z"/>
		<path id="Path_6393" class="st0" d="M14.1,35c-0.3-0.6-0.8-1.9,0.4-1.6l0.1,0c0.3,0.4,0.6,1,1.1,1.2l0.1,0.1
			c0.5,0.4,0.8,1,1.2,1.4c0.1,0.1,0.2,0.2,0.2,0.2c0.3,0.5,0.7,1,1.2,1.4c0.1,0.1,0.2,0.2,0.3,0.3c0,0.2,0.1,0.3,0.3,0.4
			c0.1,0,0.2,0.2,0.3,0.2c0.1,0.4,0.7,1.2-0.1,1c-1.7-0.8-3.3-2-4.5-3.5l0-0.1C14.6,35.6,14.4,35.4,14.1,35L14.1,35z"/>
		<path id="Path_6394" class="st0" d="M54.1,51.1"/>
	</g>
	<g id="Group_1449" transform="translate(326.479 318.238)">
		<g id="Group_1447" transform="translate(0 0)">
			<path id="Path_6395" class="st1" d="M49,0.3c5.6-0.9,11.2,0.5,16.7,1.4c4.5,0.9,8.8,2.3,12.9,4.3c1.4,0.9,3.2,1.4,4.4,2.5
				c-0.2-0.1-0.4-0.2-0.4,0.1c-0.3-0.2-0.6-0.3-0.9-0.5c0-0.3-0.4-0.5-0.5-0.2c-0.4-0.2-0.8-0.5-1.1-0.7c-0.2-0.3-0.6-0.5-0.9-0.5
				c-0.5-0.1-0.9-0.2-1.4-0.4c0-0.5-0.6-0.8-1.1-0.7c-0.7-0.2-1.4-0.5-2.2-0.8c-0.1-0.1-0.2-0.1-0.2-0.2c-0.2-0.3-0.6-0.4-0.9-0.4
				C72.2,4,71,3.4,69.8,3c-0.2-0.2-0.5-0.3-0.8-0.2c-0.2,0-0.4,0-0.6,0c-0.1-0.2-0.4-0.3-0.6-0.3l-0.1,0c-0.5-0.3-1.2-0.4-1.7-0.2
				c-0.1,0-0.2-0.1-0.4-0.1c-0.1-0.1-0.2-0.2-0.3-0.2c-0.2-0.1-0.4-0.1-0.6,0c-0.6-0.1-1.1-0.2-1.7-0.3c-0.2-0.2-0.5-0.2-0.8-0.1
				c-0.1,0-0.3-0.1-0.4-0.1c-0.2-0.2-0.5-0.2-0.8-0.1c-0.4-0.1-0.8-0.1-1.3-0.2c-1.2-0.2-2.3-0.3-3.5-0.2c-0.2,0-0.5,0-0.7,0
				c-0.3-0.2-0.8-0.4-1,0c-0.3,0-0.6-0.1-0.8-0.1c-1.4-0.1-2.9,0-4.3,0.3c-0.1,0-0.2,0-0.2,0c-1-0.1-2.1,0.1-3.1,0.4l-0.1,0
				c-1.3,0.1-2.6,0.4-3.9,0.9c-0.1,0-0.2,0-0.2,0c-0.4,0-0.9,0.2-1.2,0.4l-0.1,0c-0.8,0-1.5,0.2-2.1,0.7c-0.2,0.1-0.3,0.1-0.5,0.2
				c-1.3,0.1-2.5,0.9-3.7,1.4c-0.4,0.2-1,0.3-1.3,0.8c-0.2,0.1-0.4,0.2-0.7,0.3c-1.9,0.5-3.5,2-5.2,2.9c-0.8,0.5-1.6,1.2-2.2,1.9
				c0,0-0.1,0.1-0.1,0.1c-0.4,0.1-0.7,0.4-0.8,0.7c-4.8,4.1-8.6,9.1-11.2,14.8c0.1,0,0.2,0.1,0.3,0.2c-0.5,0.2-1.4-0.1-1.2,0.6
				c0.4-0.2,1.4,0.2,1.3-0.6c0.5,0.5-0.3,0.6-0.7,0.7c-1.4,2.6-1.9,5.6-2.5,8.5c-0.2-1.4,0.7-2.7,0.4-4.1C8.8,36,8.1,40.2,8.4,44.4
				c0,3,0.4,5.9,1.4,8.7c0.5,0.2,1.6,1.2,1.3-0.1c-0.2-2.2-1.1-4.4-1.2-6.6c0.2,0.5,0.2,1.1,0.5,1.5c0.1-0.6-0.3-1.4,0.4-1.7
				c-1-0.9-0.3-2.4-0.5-3.6c-0.1-0.4,0.3-0.7,0.6-1c0.9,0.3,0.4,1.5,0.5,2.2c0.2,1.8,0.1,3.6,0.3,5.4c-0.5,1.1-1.3-0.4-1.3-1
				c0.2,2.5,0.9,4.9,2,7.1l0,0.1c0.3,1,0.8,1.8,1.4,2.6l0,0.1c0,0.5,0.2,0.9,0.6,1.2c0.1,0.2,0.1,0.4,0.3,0.6
				c0.2,0.7,0.6,1.3,1.2,1.7l0.1,0.1c1.4,2.5,3.5,4.4,5.5,6.5c0.4,0.4,1,0.7,1,1.3c-0.9-0.1-1.1-1.1-1.9-1.5
				c-1.5-0.9-2.7-2.2-3.6-3.7c-0.4-0.7-1.7-0.6-1.3,0.3c0.4,1.1,1.6,1.8,1.6,3.1c1.5,2.8,3.9,4.9,5.6,7.6c0.6,0.5,0.9,1.3,0.8,2.1
				c-0.9,0.9-2.5,0.3-3.4,1.3c-0.6,0.5-0.6,1.3-1,1.9c0.1,2-2.1,3.8-0.9,5.8c-0.1,1.4,2.1,1.7,3.1,1.5c1.7-0.5,3.5,0.2,5.1-0.4
				c1.4,0.6,2.3,2.1,3.6,2.6c0.5-0.4,0.6-1.3,1-1.8c0.3,1.6-0.3,3.2-0.2,4.8c-0.7,1.3,1,1.7,1.8,2c1.8,0.5,3.5-1.1,5.4-0.7
				c2.4,0.1,4.7,0.7,6.9,1.6c0.3,0.3,0.6,0,0.9-0.1c0.2,0.8,0,1.8,0.3,2.6c1.3,0.7,3.1,1.2,4.3,0.2c0.8-0.8,1.7-1.3,2.8-1.7
				c2.2-0.5,5.2-1,6.7,1.2c1.3,1.7,3.7,2.1,5.6,1.1c1.3-0.7,1.8-2.2,2.8-3.2c2.5-1.5,5.7-1.7,8.4-0.4c1.4,0.6,2.8-0.2,4-0.9
				c0.7-0.6,0.3-1.5,0.4-2.3c0.2-1,1.3-1.3,2.1-1.7c2.1-0.6,3.7-2.8,6-2.2c0.9,0.2,1.9,0.8,2.8,0.3c0.7-0.4,1.4-1,1.9-1.6
				c0.7-1.9,0.2-4.2,1.7-5.9c1.5-1.8,4.1-1.6,6.2-2.1c1-0.4,1.8-1.3,2.1-2.3c0-2.2-1-4.4-0.2-6.5c0.2-0.1,0.3-0.3,0.3-0.5
				c1-1.6,3-1.8,4.7-2.4c1.1-0.2,1.3-1.5,1.6-2.4l0-0.1c-0.1-2.7-1.1-5.3-1.5-8c-0.1-2.2,3.3-2.6,3.1-4.8c0-0.1,0-0.3,0-0.4
				c0-0.5,0.4-1.5-0.3-1.7l-0.1-0.1c-0.4-3-2.6-5.5-2.7-8.6c0.6-2.1,0.1-4.3-1.3-5.9c-0.8-0.8-1-2.2-1.8-3c-0.9-1.2-2.3-2.1-3.1-3.5
				c-1.9-2.4-3.1-5.3-5.3-7.4c-2.3-2.8-4.9-5.5-7.6-7.9l-0.1-0.1c-0.6-0.6-1.3-1-2.1-1.4c-0.3-0.2-0.6-0.4-0.9-0.6
				c0,0-0.1-0.1-0.1-0.1c0.1-0.3-0.3-0.6-0.5-0.3c0,0-0.1-0.1-0.1-0.1c0-0.1,0-0.3-0.2-0.3c-0.1,0-0.2,0-0.2,0
				c-0.3-0.5-0.9-0.8-1.4-1.1c-0.1-0.1-0.2-0.2-0.3-0.3c5.7,3.4,10.8,7.7,15.3,12.6c1.6,1.8,2.5,4,4.2,5.7c1.1,1.4,2.5,2.5,3.5,3.9
				c1.4,2.6,3.9,5,3.6,8.3c-0.5,2.5,1,4.8,2,7c0.5,2,1.3,4.1,0.5,6.1c0,1.7-1.9,2.5-2.2,4.1c0.5,0.9,0.5,2,1,2.9
				c0.7,1.6-0.4,3,0.3,4.5c-0.6,1.6-1.1,3.5-2.7,4.4c-0.9,0.6-2.1,0.4-3,0.9c-0.7,1-1,2.2-0.7,3.4c0,2,0,4.3-1.3,5.9
				c-0.9,1.2-2.3,2-3.8,2.1c-1.2-0.3-2.5,0.1-3.2,1.2c-0.4,2.5-0.7,5.5-2.9,7.1c-0.9,1-2.4,1.1-3.7,1.1c-1.4-0.2-3-0.8-4.3,0.2
				c-1.4,1.2-3.1,2-4.3,3.5c-0.6,2-2.8,2.7-4.6,2.9c-2.5-0.5-5.4-1.7-7.7,0.1c-2.1,4.3-8.5,4.6-11.6,1.3c-1.1-1-2.7-0.4-4-0.1
				c-1.3,0.5-2.3,1.6-3.8,1.8c-1.5,0.2-3-0.1-4.3-0.9c-1.2-0.7-1.3-2.3-2.7-2.7c-2.5-0.7-5.1-0.9-7.6-0.4c-2,0.4-4.5-0.2-5.7-2
				c-0.4-1.7-0.9-3.6-2.7-4.3c-1.7-1-3.6-1.3-5.5-0.9c-1.7,0.3-3.1-0.6-4.3-1.6c-1.4-1,0.1-2.9-0.9-4.2c-1.5-2.2-3.9-3.8-6.6-4.3
				c-1.6-0.5-3-1.6-3.8-3.1c-0.3-1.3,1.2-2.4,0.5-3.7c-0.5-1.8-1.3-3.6-2.5-5.1C3.3,66,2,65,0.8,63.9c0.1-0.8-0.6-1.5-0.4-2.4
				c0.9-1.1,1.6-2.3,2.2-3.6c-0.1-2,0.2-4.3-0.9-6.1c-0.4-1-1.8-1.7-1.7-3c0.1-0.7-0.1-1.7,0.5-2.3c1.4-1.1,2.1-2.9,3.5-4
				c-0.1-1.8,1.7-3,1.6-4.7c-0.6-0.9-0.9-2-0.9-3c0.7-1.7,2-3,2.9-4.6c1.5-1.4,2.7-3.1,3.5-5c1.8-3.5,4.1-6.6,6.9-9.3
				c2.3-2.9,5.1-5.4,8.2-7.4C33.1,4,40.9,1.2,49,0.3z M11.4,54.3c-0.9,0.7,0.1,2.1,1,2.3C12.2,55.8,11.9,55.1,11.4,54.3L11.4,54.3z
				 M2.9,54.5c-0.1,0.5-0.1,1.1,0,1.6c0.3-0.2,0.6-0.6,0.2-0.9C2.8,55,3.5,54.3,2.9,54.5L2.9,54.5z M4.4,59.8
				c0.2,0.5-0.3,1.4,0.2,1.8c0.7,0.2,1.2,0.6,1.5,1.2c1,0.6,0.4-1.4,0.4-2C5.9,60.5,5.1,60.1,4.4,59.8L4.4,59.8z M1.5,60.8
				C1.3,61,0.8,62,1.3,61.9C1.2,61.5,1.7,60.8,1.5,60.8L1.5,60.8z M0.9,63.1c0,0.3-0.1,0.8,0.3,0.9c0.2-0.2,0.2-0.5,0.1-0.7
				C1.1,63.1,1,63.1,0.9,63.1L0.9,63.1z M6.5,63.7c-0.2,0.5-0.6,1.1-1.3,0.8c-0.7-0.1-0.6,0.8-0.9,1.2c0.5,0.5,1.3,0.1,1.7-0.5
				c0.4-0.7,1,0.1,1.5,0C7.5,64.6,7,63.7,6.5,63.7L6.5,63.7z M13.6,69.7c-0.5,0.2-1,0.6-1.7,0.3c-1.1-0.1-1.8,0.9-2.1,1.8
				c-1,1.2-0.9,2.8-1.4,4.1c0.4-0.1,1-0.1,1.1-0.7c-0.1-0.9,0.8-1.3,1.5-1.3c0.5,0,0.2,0.6,0.6,0.8c0.3,0.4,0.8-0.2,1,0.2
				c0.2,1-0.8,1.7-1.3,2.4c-0.5,0.1-1.1-0.2-1.5,0C9.4,78,10.4,78,10.7,78c1.1,0.4,2.4,0.5,3.5,1c0.2,0.2,0.5,0.6,0.8,0.2
				c-0.2-0.7-0.4-2.2,0.8-1.8c0.4,0,0.6-0.5,0.9-0.7c0.2,0.3,0.6,0.5,1,0.4c0-1.1-0.7-2.1-1.8-2.5c-0.3,1,1.4,0.9,0.9,1.9
				c-0.5,0-0.7-0.9-1.1-0.3c-0.7,0.3,0-0.4,0-0.7c-0.9-1.1-1.3-2.6-2.1-3.9C13.1,71.2,14.8,69.5,13.6,69.7L13.6,69.7z"/>
		</g>
		<path id="Path_6396" class="st2" d="M83.2,8.5c0.2-0.2,0.7,0.1,0.6,0.4C83.5,8.8,83.3,8.7,83.2,8.5z"/>
		<path id="Path_6397" class="st2" d="M16.2,25c0-0.2,0.8-0.7,0.6-0.2c-1.7,5.1-3,10.3-3.6,15.6c-0.1,3,0.7,5.9,1.2,8.8
			c0.3,2.7,2,4.9,3.2,7.3c0.5,1.3,1.3,2.5,2.4,3.4c0.4,1,1.4,1.6,2,2.4c0.4,1,1.6,1.5,2,2.6c-0.1,0-0.1,0.1-0.2,0.1
			c-0.3-0.7-1.3-0.6-1.6-1.3c-0.5-1.2-2.2-1.4-2.5-2.7c-1.3-1.8-2.6-3.6-3.8-5.5c-0.7-1.9-1.7-3.6-2.3-5.5c-1.8-4.8-1.4-10-1.1-14.9
			C13.3,31.6,14.5,28.2,16.2,25z"/>
		<path id="Path_6398" class="st2" d="M9.6,38.7c0-0.8,0.1-1.6,0.3-2.4C9.9,37.1,9.8,37.9,9.6,38.7z"/>
		<path id="Path_6399" class="st2" d="M9.6,43.4c-0.2-1.4-0.2-2.9,0-4.3C9.6,40.5,9.6,42,9.6,43.4z"/>
		<path id="Path_6400" class="st2" d="M9.6,43.8c0.2,0.8,0.3,1.7,0.2,2.5C9.7,45.5,9.6,44.6,9.6,43.8z"/>
		<path id="Path_6401" class="st2" d="M11.4,49.9"/>
		<path id="Path_6402" class="st2" d="M14.5,54.9c0.8-0.2,0.5,1.1,0.4,1.5C13.9,56.9,13.5,55.2,14.5,54.9z"/>
		<path id="Path_6403" class="st2" d="M16.7,59.9c0.3-0.1,0.5,0.2,0.6,0.5c-1.2-0.3-0.7,1-0.4,1.6C16.5,61.6,15.8,60.3,16.7,59.9z"
			/>
		<path id="Path_6404" class="st2" d="M17.5,60.4c0.6,0.1,0.8,0.7,1.1,1.2C18,61.4,17.8,60.8,17.5,60.4z"/>
		<path id="Path_6405" class="st2" d="M18.6,61.6l0.1,0l0.1,0c0.5,0.4,0.8,0.9,0.9,1.5C19.4,62.6,19.2,62,18.6,61.6z"/>
		<path id="Path_6406" class="st2" d="M17,62.1c0.2,0.2,0.4,0.5,0.5,0.8C17.1,62.9,17.1,62.4,17,62.1z"/>
		<path id="Path_6407" class="st2" d="M17.5,63c1.2,1.5,2.8,2.7,4.5,3.5c0.8,0.2,0.2-0.6,0.1-1c0.5,0.2,1.5,1.7,0.3,1.5
			c-1.9-0.9-3.5-2.2-4.9-3.8C17.5,63.2,17.5,63.1,17.5,63z"/>
		<path id="Path_6408" class="st2" d="M20.1,63.3c0.6,0.3,1,0.8,1.2,1.4C20.8,64.3,20.4,63.8,20.1,63.3z"/>
		<path id="Path_6409" class="st2" d="M21.6,65c0.2-0.2,0.4,0.2,0.3,0.4C21.7,65.3,21.6,65.1,21.6,65z"/>
		<path id="Path_6410" class="st2" d="M24.8,65.7c0.2,0,0.4,0.2,0.5,0.4c-0.2,0.1-0.4-0.1-0.5-0.3C24.8,65.8,24.8,65.7,24.8,65.7z"
			/>
		<path id="Path_6411" class="st2" d="M22.9,69.7c0.3,0.1,0.5,0.4,0.6,0.6C23.2,70.3,22.9,70.1,22.9,69.7z"/>
		<g id="Group_1448" transform="translate(54.541 77.81)">
			<path id="Path_6412" class="st2" d="M0,0c1.3,0,2.6,0.2,3.9,0.1C3.5,0.6,3,0.8,2.4,0.6C1.6,0.5,0.6,0.7,0,0z"/>
		</g>
		<path id="Path_6413" class="st2" d="M30.8,85.2c0.7,0.2,0.6,1.2,0.7,1.9C30.8,87.6,31,85.6,30.8,85.2z"/>
		<path id="Path_6414" class="st2" d="M29.2,86.5c1.1-0.2-0.4,1.3-0.7,0.7C28,86.7,28.8,86.7,29.2,86.5z"/>
	</g>
	<g id="Group_1452" transform="translate(327.352 318.899)">
		<path id="Path_6415" class="st3" d="M48.6,0.5c1.4-0.3,2.8-0.4,4.3-0.3c-0.2,0-0.4,0.1-0.6,0.2c-0.1,0-0.3,0-0.4,0
			c-0.6-0.1-1.1,0-1.7,0.1c-0.2,0-0.4,0.1-0.5,0.1C49.3,0.6,48.9,0.5,48.6,0.5z"/>
		<path id="Path_6416" class="st3" d="M53.7,0.3c0.2-0.4,0.7-0.2,1,0C54.5,0.2,53.9,0.2,53.7,0.3z"/>
		<path id="Path_6417" class="st3" d="M55.5,0.3c1.2-0.1,2.4,0,3.5,0.3c-0.5,0-0.9,0-1.4,0c-0.1,0-0.2,0-0.3,0c-0.5-0.1-1-0.1-1.5,0
			c-0.2,0-0.3-0.1-0.5-0.1L55.5,0.3z"/>
		<path id="Path_6418" class="st3" d="M45.2,0.9c1-0.3,2-0.4,3.1-0.4c-0.1,0.1-0.1,0.1-0.2,0.2H48C47.1,0.7,46.2,0.9,45.2,0.9z"/>
		<path id="Path_6419" class="st3" d="M60.2,0.7c0.2-0.1,0.5-0.1,0.8,0.1C60.8,0.9,60.5,0.9,60.2,0.7z"/>
		<path id="Path_6420" class="st3" d="M41.3,1.8c1.2-0.5,2.5-0.8,3.9-0.9C43.9,1.3,42.6,1.6,41.3,1.8z"/>
		<path id="Path_6421" class="st3" d="M61.4,0.9C61.7,0.7,62,0.8,62.2,1C62,1.1,61.6,1,61.4,0.9z"/>
		<path id="Path_6422" class="st3" d="M63.9,1.3c0.2-0.1,0.4-0.1,0.6,0c-0.1,0-0.2,0.2-0.3,0.2c-0.1,0-0.2-0.1-0.3-0.1L63.9,1.3z"/>
		<path id="Path_6423" class="st3" d="M65.1,1.7c0.6-0.2,1.2-0.1,1.7,0.2c-0.5,0-1-0.1-1.5-0.1C65.3,1.8,65.2,1.7,65.1,1.7z"/>
		<path id="Path_6424" class="st3" d="M39.8,2.3C40.2,2,40.6,1.9,41,1.9C40.7,2.1,40.3,2.2,39.8,2.3z"/>
		<path id="Path_6425" class="st3" d="M67,1.9c0.2,0,0.5,0.1,0.6,0.3C67.4,2.2,67.1,2.2,67,1.9C67,1.9,67,1.9,67,1.9z"/>
		<path id="Path_6426" class="st3" d="M57.2,2.1C58.1,2.1,59,2.3,60,2.3c0,0.1-0.1,0.2-0.1,0.3C59.2,2.4,57.1,3.2,57.2,2.1z"/>
		<path id="Path_6427" class="st3" d="M68.1,2.2c0.3-0.1,0.6,0,0.8,0.2C68.6,2.5,68.3,2.4,68.1,2.2z"/>
		<path id="Path_6428" class="st3" d="M37.6,3c0.6-0.5,1.3-0.7,2.1-0.7C39,2.6,38.3,2.8,37.6,3z"/>
		<path id="Path_6429" class="st3" d="M33.4,4.6c1.3-0.4,2.4-1.3,3.7-1.4c-1.7,0.7-3.4,1.4-5,2.1C32.3,4.9,32.9,4.8,33.4,4.6z"/>
		<path id="Path_6430" class="st3" d="M72.6,3.6c0.4,0,0.7,0.1,0.9,0.4C73.2,3.9,72.9,3.8,72.6,3.6z"/>
		<path id="Path_6431" class="st3" d="M76,5c0.4-0.1,1.1,0.1,1.1,0.7C76.7,5.5,76.3,5.3,76,5z"/>
		<path id="Path_6432" class="st3" d="M26.2,8.6c1.7-1,3.3-2.4,5.2-2.9c-2.6,1.4-5.1,3-7.5,4.8C24.6,9.8,25.4,9.1,26.2,8.6z"/>
		<path id="Path_6433" class="st3" d="M78.4,6.1c0.4,0,0.7,0.2,0.9,0.5C79,6.4,78.7,6.2,78.4,6.1z"/>
		<path id="Path_6434" class="st3" d="M80.5,7.3C80.6,7,81,7.1,81,7.4C80.8,7.4,80.6,7.4,80.5,7.3z"/>
		<path id="Path_6435" class="st3" d="M81.8,7.9c-0.1-0.3,0.2-0.2,0.4-0.1l0.1,0.1c0.2,0.1,0.4,0.3,0.6,0.4c0.2,0.1,0.3,0.2,0.5,0.3
			c0.1,0.1,0.2,0.2,0.3,0.3c0,0.1,0,0.2,0,0.3C83.1,8.7,82.5,8.3,81.8,7.9z"/>
		<path id="Path_6436" class="st3" d="M83.6,8.9c0.4,0.4,1,0.6,1.4,1.1l0,0.1c-0.5-0.3-0.9-0.6-1.3-1C83.6,9.1,83.6,8.9,83.6,8.9z"
			/>
		<path id="Path_6437" class="st3" d="M84.9,10c0.1-0.1,0.3,0,0.4,0.1c0,0.1,0.1,0.2,0,0.2c-0.2,0-0.3-0.1-0.4-0.2L84.9,10z"/>
		<path id="Path_6438" class="st3" d="M85.5,10.4c0.2-0.3,0.6,0,0.5,0.3C85.8,10.7,85.5,10.6,85.5,10.4z"/>
		<path id="Path_6439" class="st3" d="M23,11.3c0.1-0.4,0.4-0.6,0.8-0.7C23.6,10.9,23.3,11.1,23,11.3z"/>
		<path id="Path_6440" class="st3" d="M86.9,11.5c0.8,0.4,1.5,0.8,2.1,1.4c-0.3-0.1-0.5-0.2-0.8-0.3c-0.2-0.1-0.4-0.2-0.5-0.3
			C87.4,12,87.2,11.7,86.9,11.5z"/>
		<g id="Group_1450" transform="translate(89.157 12.926)">
			<path id="Path_6441" class="st3" d="M0,0c2.7,2.4,5.3,5.1,7.6,7.9c2.2,2.2,3.4,5.1,5.3,7.4c0.8,1.4,2.1,2.2,3.1,3.5
				c0.8,0.9,1,2.2,1.8,3c1.4,1.7,1.8,3.9,1.3,5.9c0.1,3.1,2.3,5.6,2.7,8.6c-1.3-1.3-1.2-3.4-2.7-4.6c0.1-0.7-0.5-1.3-0.9-1.9
				c-1,0.8-0.7-0.9-1.2-1.5c-0.7,0.3,0.2,1-0.1,1.5c-0.4,1,0,2-0.4,3c-0.3,0.7,0.3,1.7-0.5,2.2c0.2,0.4,0.8,1.7-0.1,1.4
				c-1.2-0.3,0.3-1.6-0.4-2.2c-0.4-0.4-0.7-1.2,0-1.2c-0.2-0.9,0.1-1.9-0.3-2.7c-0.4-0.6,0.1-1.4-0.4-1.9c-0.4-0.6,0.2-0.6,0.5-0.8
				c0-0.5-0.7-0.8-0.6-1.3C13.6,16.8,8.7,8.2,1.8,2C1.7,2,1.7,1.9,1.6,1.9C1.2,1.1,0.4,0.7,0,0z M16.8,22c-0.2,0.3-0.6,0.6-0.4,1
				c0.4,1.1,0.5,2.3,1,3.4c0.1,0.3,0.1,1,0.7,0.8c0.2-0.6,0.7-1.1,0.9-1.7C18.7,24.1,17.9,22.9,16.8,22z"/>
		</g>
		<path id="Path_6442" class="st3" d="M110.9,49.4c0.7,0.2,0.2,1.1,0.3,1.7C111.2,50.5,111.1,49.9,110.9,49.4z"/>
		<path id="Path_6443" class="st3" d="M104.1,49.7c0.6,0.3,1.1,1.3,0.5,1.8c-0.4,0.7-0.2,1.6-0.6,2.3c-0.5-0.1-1,1-0.8-0.3
			C102.9,52.2,104,51.1,104.1,49.7z"/>
		<path id="Path_6444" class="st3" d="M107.4,56.4c0.1-2.4,3.2-2.9,3.8-5c0.2,2.2-3.2,2.6-3.1,4.8c0.4,2.7,1.4,5.3,1.5,8
			c-0.1-0.6-0.3-1.1-0.7-1.6c0-1.4-0.8-2.6-0.9-3.9C108,57.9,107.5,57.2,107.4,56.4z"/>
		<path id="Path_6445" class="st3" d="M103,55c0.8-0.6,1.3,1.3,0.4,1.2C102.9,56.2,102.7,55.3,103,55z"/>
		<path id="Path_6446" class="st3" d="M3.5,59.2c0.7,0.3,1.4,0.7,2.1,1.1c0.1,0.6,0.6,2.6-0.4,2c-0.3-0.6-0.9-1-1.5-1.2
			C3.2,60.6,3.8,59.7,3.5,59.2z"/>
		<path id="Path_6447" class="st3" d="M0.6,60.1c0.2,0-0.3,0.8-0.2,1.1C-0.1,61.3,0.4,60.3,0.6,60.1z"/>
		<path id="Path_6448" class="st3" d="M21.1,61.7c0.7-0.1,0.9,0.7,1.3,1.1c0.8,0.9,1.8,1.7,2.9,2.4c0.1,0.1,0.2,0.3,0.3,0.4
			c0.1,0.3,0.4,0.4,0.7,0.3c0,0.1,0.1,0.1,0.1,0.1c-0.1,0.8,1.5,1.3,0.7,2c-0.8-1-1.7-1.8-2.7-2.6c-0.1-0.2-0.3-0.4-0.5-0.4
			c-0.3-0.3-0.5-0.5-0.8-0.7C22.7,63.2,21.5,62.7,21.1,61.7z"/>
		<path id="Path_6449" class="st3" d="M0,62.4c0.3,0,0.5,0.2,0.5,0.5c0,0.1-0.1,0.3-0.2,0.4C-0.1,63.2,0,62.7,0,62.4z"/>
		<path id="Path_6450" class="st3" d="M5.6,63c0.6,0,1,1,1,1.6c-0.5,0-1.1-0.7-1.5,0c-0.3,0.5-1.1,1-1.7,0.5
			c0.3-0.4,0.2-1.3,0.9-1.2C4.9,64.1,5.4,63.6,5.6,63z"/>
		<g id="Group_1451" transform="translate(14.886 63.152)">
			<path id="Path_6451" class="st3" d="M0,0.8c-0.3-0.9,1-1.1,1.3-0.3C2.3,2,3.5,3.3,5,4.2c0.8,0.3,1,1.3,1.9,1.5
				C7,5.7,7.1,5.8,7.2,5.9c0,0.3,0.3,0.6,0.6,0.6C8.7,7,9.5,7.5,10.3,8.2c-0.4,0.8-1.4,0-1.8-0.5C7.8,7,6.7,7.1,6.1,6.4
				c-0.7,0.1-0.3,1,0.1,1.2c1.8,1.4,2.6,4,4.9,4.9c1-0.5,1.8,0.2,1.6,1.2c1.6,1.4,3.5,2.6,5.6,3.3c1.9,0.7,3.5,1.9,5.4,2.3
				c2.8,0.9,5.5,2,8.4,2.1c4,1.1,8.1,0.7,12.2,0.8c3.5-0.3,7-0.3,10.4-1.5c1.1-0.3,2.4,0.1,3.4-0.7c2.4-1,5.1-1.4,7.2-3
				c1.3-0.3,2.4-1,3.7-1.3c0.5-0.6,1.2-0.9,2-1.1c-0.2,0.6-0.9,0.6-1.2,1c-0.3,0.8-1.7,0-1.1,1.4c-0.9,0.1-1.7,0.7-2.1,1.5
				c0,0.7-0.3,1.5-0.8,2c-0.6,0.9-2.7,0.7-2.6,2c0.4-0.2,0.9,0,0.8,0.6c-0.7,1.7-1.4,3.6-0.6,5.4c0.3,0,0.7-0.1,1-0.1
				c0,0.4-0.4,1.2-0.8,0.6c-0.5-0.7-0.7,1.7-0.2,1.1c0.3-0.5,0.9-0.4,1.3-0.5c-0.3-0.8,0.3-1.5,0.6-2.1c2-1.5,4.2-2.7,6.5-3.5
				c1.1,0.1,2.2,0.1,3.3,0c1.3-0.6,0.3,0.5,0.7,0.9c0.2-0.1,0.9-0.1,0.6-0.5c-0.6-0.6,0.8-1.7,1.1-0.8c0.6-0.3,0-0.9,0.2-1.4
				c0.2-1.1,0.3-2.2,0.3-3.4c1.3-2.5,4.1-4,7-3.6c0.6,0.2,2.4-0.2,1.6-1.2c0.2-0.5,0.9-0.7,0.5-1.3c1-1.5,0.1-3.3,0.1-5
				c-0.3-0.7,0.3-1,0.7-1.3c-0.7,2.1,0.2,4.4,0.2,6.5c-0.3,1-1.1,1.9-2.1,2.3c-2.1,0.5-4.7,0.3-6.2,2.1c-1.4,1.7-1,4-1.7,5.9
				c-0.5,0.6-1.2,1.2-1.9,1.6c-0.9,0.5-1.9-0.1-2.8-0.3c-2.3-0.6-3.9,1.6-6,2.2c-0.8,0.4-1.9,0.7-2.1,1.7c-0.1,0.7,0.3,1.7-0.4,2.3
				c-1.1,0.8-2.6,1.5-4,0.9c-2.7-1.3-5.8-1.1-8.4,0.4c-1.1,0.9-1.5,2.5-2.8,3.2c-1.9,1-4.2,0.5-5.6-1.1c-1.5-2.2-4.5-1.7-6.7-1.2
				c-1,0.4-2,1-2.8,1.7c-1.2,1.1-3.1,0.6-4.3-0.2c-0.4-0.8-0.1-1.7-0.3-2.6c-0.3,0.1-0.6,0.4-0.9,0.1c-2.2-0.9-4.5-1.5-6.9-1.6
				c-1.9-0.4-3.5,1.2-5.4,0.7c-0.9-0.3-2.5-0.7-1.8-2c-0.1-1.6,0.5-3.2,0.2-4.8c-0.4,0.5-0.5,1.4-1,1.8c-1.4-0.6-2.3-2-3.6-2.6
				c-1.7,0.5-3.5-0.2-5.1,0.4c-1,0.2-3.2-0.1-3.1-1.5c-1.2-2,1-3.8,0.9-5.8c0.4-0.6,0.4-1.4,1-1.9c0.9-1,2.5-0.3,3.4-1.3
				c0.2-0.8-0.1-1.6-0.8-2.1C5.5,8.9,3.1,6.7,1.6,3.9C1.6,2.6,0.5,1.9,0,0.8z M15,21.4c0.2,0.4,0,2.4,0.7,1.9
				C15.6,22.6,15.8,21.6,15,21.4z M13.5,22.6c-0.5,0.2-1.3,0.2-0.7,0.7C13.1,24,14.6,22.4,13.5,22.6L13.5,22.6z M57.8,23.8
				c-1,0.6-1.9,1.4-2.6,2.4c-0.6,0.2-1.7,0.4-1.8-0.5c-0.4-0.5-0.1-1.4-0.8-1.5c-0.5,0.7-1.1,1.3-1.9,1.7c-0.7,1.6-1.8,3.2-1.5,5
				c-0.8,1-0.5,2.3-0.5,3.5c-0.7,0-1.4,0.2-1.9,0.6c0.2,0.5,0.9,0.2,1.3,0.1c1.1,0.1,2.1-0.6,2.4-1.7c0.3-1.4,1.7-1.8,2.7-2.5
				c-0.2-0.6-0.1-1.3,0.1-1.9c-0.1-0.6-0.2-1.4,0.5-1.7c1.1-0.4,2.4-1.1,3.6-0.8c0.8,0.7-1,1.4-0.6,2.2c0.2,0.4,0.2,0.8,0.1,1.2
				c0.7,0.1,1.3,0.5,2,0.4c0.8,0,2.3,0.9,2.4-0.4c-0.4-1.7,0.5-3.5-0.5-5C60.9,23.5,58.9,23.8,57.8,23.8L57.8,23.8z M21.1,24.8
				c-0.4,0.1-0.7,0.5-0.6,1c0,0.1,0.1,0.2,0.1,0.3c0.6,0.8,1.7,0.2,2.1-0.6C22.6,24.8,21.5,24.7,21.1,24.8L21.1,24.8z M28.3,26.8
				c-0.4,1.3,0,2.7,0.9,3.6C30,29.3,29.7,27.3,28.3,26.8L28.3,26.8z M36.2,27.2c-0.8-0.2-1.1,0.5-1.5,1c-1.3,1.7-0.1,3.9-0.3,5.8
				c0.5,0.1,0.6-0.5,0.9-0.7c0.5-0.5,1.4-0.6,1.9-1.1c0.1-0.7,0.5-1.4,0.2-2.2c-0.4-0.8,0.7-1.3,0.5-2.1
				C37.6,27.3,36.9,27,36.2,27.2L36.2,27.2z M43.4,27.5c-0.4,0.1-1.2,0.1-0.9,0.8c1.1,1-0.2,2.5,0.6,3.6c0.6,0.9,1.4,1.6,2.4,2.1
				c0.1-1.4,0-2.8,0-4.2c0.1-1.1-0.7-2.2-1.9-2.3C43.5,27.5,43.5,27.5,43.4,27.5L43.4,27.5z M21.2,27.6c-0.8,0.6-1.2,1.5-1.3,2.5
				c0.7-0.2,1.5-0.3,2.1-0.5c0.5-0.5,0.4-1.2,0-1.7C21.8,27.7,21.5,27.6,21.2,27.6L21.2,27.6z M64.6,30.1c0,0.3,0.1,1,0.4,0.6
				C65.1,30.4,64.8,30.3,64.6,30.1L64.6,30.1z"/>
		</g>
		<path id="Path_6452" class="st3" d="M99.7,64.3c0.7-0.2,0.1,1.1,0,1.5c-0.1,0.5,0.4,0.7,0.5,1.1c-0.5-0.3-1.1-0.4-1.6-0.2
			C98.9,65.9,98.8,64.9,99.7,64.3z"/>
		<path id="Path_6453" class="st3" d="M107.8,66.6c1.3-0.1,1-1.5,1.8-2.2c-0.4,0.9-0.5,2.1-1.6,2.4c-1.7,0.6-3.6,0.8-4.7,2.4
			C104,67.3,106.1,66.7,107.8,66.6z"/>
		<path id="Path_6454" class="st3" d="M107.6,65.9c0.5-0.2,0.2,0.6-0.2,0.4C107,66.4,107.5,66,107.6,65.9z"/>
		<path id="Path_6455" class="st3" d="M97.6,66.9c0.9-0.5,1.4,0.4,1,1C97.9,68.2,96.9,67.6,97.6,66.9z"/>
		<path id="Path_6456" class="st3" d="M27.9,68.6c0.7-0.6,1.6-0.1,1.9,0.7c0.6-0.1,1.3,0.6,0.7,1.1c-0.1-0.1-0.3-0.3-0.4-0.4
			c-0.1-0.2-0.2-0.4-0.5-0.4C29,69.3,28.5,69,27.9,68.6z"/>
		<path id="Path_6457" class="st3" d="M12.7,69c1.2-0.2-0.4,1.6,0,2.1c0.8,1.2,1.2,2.7,2.1,3.9c0.1,0.3-0.7,1.1,0,0.7
			c0.4-0.7,0.7,0.3,1.1,0.3c0.5-1-1.2-1-0.9-1.9c1,0.4,1.7,1.4,1.8,2.5c-0.4,0.1-0.8-0.1-1-0.4c-0.3,0.1-0.5,0.7-0.9,0.7
			c-1.2-0.4-1,1.1-0.8,1.8c-0.2,0.4-0.5,0-0.8-0.2c-1.1-0.5-2.4-0.6-3.5-1c-0.4,0-1.3,0-1.1-0.7c0.5-0.3,1,0,1.5,0
			c0.6-0.7,1.5-1.4,1.3-2.4c-0.2-0.4-0.8,0.2-1-0.2c-0.3-0.2-0.1-0.8-0.6-0.8c-0.7-0.1-1.7,0.3-1.5,1.3c-0.1,0.5-0.7,0.5-1.1,0.7
			c0.6-1.3,0.5-2.9,1.4-4.1c0.3-0.9,1.1-2,2.1-1.8C11.7,69.6,12.2,69.2,12.7,69z"/>
		<path id="Path_6458" class="st3" d="M93.1,72.1c0.5-0.3,0.7,0.4,0.4,0.7c-1,1.3-0.4,3.5-2.2,4.2c-0.4,1.1-1.4,1.5-2.3,2.1
			c-0.6-0.1-1.2,0-1.8,0.2c-0.6-1.6,0.2-3.4,1.8-4c0.1,0,0.2-0.1,0.3-0.1c1-1,2.6-1.4,3.3-2.8C92.8,72.2,93,72.1,93.1,72.1z"/>
		<path id="Path_6459" class="st3" d="M35.6,73c0.3-0.3,0.6-0.7,1-0.5c0.4,0.3,0.1,0.8-0.1,1.2C36.2,73.5,35.9,73.3,35.6,73z"/>
		<path id="Path_6460" class="st3" d="M43.3,75.1c0.1-0.3,0.2-0.6,0.3-0.9c0.1,0.4,0.1,0.7,0.2,1.1C43.6,75.2,43.4,75.1,43.3,75.1z"
			/>
		<path id="Path_6461" class="st3" d="M44.5,75.4c0-0.6,0.6-0.7,0.6,0C44.9,75.4,44.7,75.4,44.5,75.4z"/>
		<path id="Path_6462" class="st3" d="M45.8,75.2c0.3-0.5,0.6-0.4,0.6,0.1C46.2,75.3,46,75.3,45.8,75.2z"/>
		<path id="Path_6463" class="st3" d="M7,76.1"/>
		<path id="Path_6464" class="st3" d="M53.4,77c1.5,0.1,3,0.1,4.4,0.3c-0.1,0-0.2,0-0.3,0.1c-1.3,0-2.6-0.1-3.9-0.1
			C53.6,77.1,53.4,77,53.4,77z"/>
		<path id="Path_6465" class="st3" d="M100.7,77.8"/>
	</g>
	<g id="Group_1454" transform="translate(336.072 319.094)">
		<path id="Path_6466" class="st4" d="M43.5,0.2C43.7,0.1,43.9,0,44.1,0c0.3,0,0.6,0,0.8,0.1c0.3,0,0.8,0,1,0s0.5,0,0.7,0l-0.1,0.2
			C45.6,0.2,44.5,0.3,43.5,0.2z"/>
		<path id="Path_6467" class="st5" d="M41.4,0.3c0.5-0.1,1.1-0.1,1.7-0.1C42.5,0.3,42,0.3,41.4,0.3z"/>
		<path id="Path_6468" class="st5" d="M47.1,0.3c0.5-0.1,1-0.1,1.5,0c0,0-0.1,0.1-0.2,0.2C48,0.4,47.6,0.4,47.1,0.3z"/>
		<path id="Path_6469" class="st5" d="M39.6,0.3c0.1,0,0.2,0,0.2-0.1c0.4,0,0.7,0.1,1.1,0.1c-0.5,0.1-1,0.1-1.5,0.1
			C39.5,0.5,39.5,0.4,39.6,0.3z"/>
		<path id="Path_6470" class="st4" d="M48.9,0.3c0.5,0,0.9,0,1.4,0c0.4,0.1,0.8,0.1,1.3,0.2c0.2,0.2,0.5,0.2,0.8,0.1
			c0.1,0,0.3,0.1,0.4,0.1c0.2,0.2,0.5,0.2,0.8,0.1c0.6,0.1,1.1,0.2,1.7,0.3l0,0.1c-2.1-0.1-4.1-0.6-6.3-0.6
			C48.9,0.5,48.9,0.4,48.9,0.3z"/>
		<g id="Group_1453" transform="translate(0 0.551)">
			<path id="Path_6471" class="st6" d="M36.5,0.2c0.9,0,1.8-0.2,2.8-0.2c-1.7,0.4-3.5,0.6-5.3,1c-0.3,0.1-0.4,0.6-0.7,0.6
				c-0.3-0.1-0.6-0.4-0.9-0.2C30,2.1,27.6,3,25.3,3.9c-0.5,0.2-0.7,0.8-1.3,0.6c-5.4,2.6-10.3,6.3-14.3,10.8
				c-0.7,1.1,0.7,0.9,0.7,0.2c0.6,1.1-0.8,1.9-1,2.9c1.9-1.9,3.5-4.1,5.6-5.8c1.1-0.9,2-2.1,3.4-2.4c-1.2,1.4-2.6,2.6-4.1,3.7
				c-1.4,1-2.1,2.7-3.3,4c-1.1,1.2-1.9,2.5-2.5,4c-0.6,1.7-1.5,3.2-2.1,4.9c-2.8,6.9-3.1,14.6-0.8,21.8c2,6.2,6.1,11.5,10.8,15.8
				c-1.1-0.7-2-1.5-2.9-2.4c-0.4-0.4-0.6-1.2-1.3-1.1c-0.6-0.8-1.6-1.4-2-2.4c-1.1-0.9-1.9-2.1-2.4-3.4c-1.2-2.4-2.9-4.6-3.2-7.3
				C4.2,44.9,3.4,42,3.5,39c0.7-5.3,1.9-10.6,3.6-15.6c0.2-0.6-0.5-0.1-0.6,0.2c-1.7,3.2-2.9,6.6-3.7,10.1c-0.3,5-0.6,10.1,1.1,14.9
				c0.6,1.9,1.6,3.7,2.3,5.5c1.2,1.9,2.5,3.7,3.8,5.5c0.2,1.3,2,1.5,2.5,2.7c0.3,0.7,1.3,0.5,1.6,1.3c0.1-0.1,0.1-0.1,0.2-0.1
				c0.3,0.2,0.5,0.5,0.8,0.7c0,0.2,0.1,0.4,0.3,0.4c0,0,0.1,0,0.1,0c1,0.7,1.9,1.6,2.7,2.6l-0.1,0.1C17,67,16.1,66,15,65.4
				c-0.6-1.1-2-1.5-2.7-2.6c-0.6-0.6-1-1.5-1.9-1.6c0.7,1,1.7,1.9,2.4,2.9l0.1,0.1c0.5,0.5,0.8,1.1,1.3,1.6c0.5,0.6-0.5,1.2-0.9,0.8
				c-0.9-0.7-1.8-1.3-2.7-2c0,0-0.1,0.1-0.1,0.2c2,2.2,4.2,4.2,6.7,6c-0.2-0.1-0.5-0.1-0.7-0.2c-0.7-0.7-1.6-1.2-2.5-1.6
				c-0.1-0.3-0.3-0.5-0.6-0.6c-0.1-0.1-0.2-0.2-0.3-0.2c0-0.7-0.7-0.9-1-1.3c-2-2.1-4.1-4-5.5-6.5c0.7-0.3-0.4-1.1-0.5-1.6
				c0.3-0.7-0.5-1.1-0.6-1.7c0.5-0.5,0-1.1-0.5-1.3c-0.5-0.1-0.4,0.6-0.5,0.9C3.7,55.8,3.2,54.9,3,54c0.4-0.3,0-0.8-0.3-1
				c0.1,0.3,0.2,0.5,0.2,0.8c-1.1-2.2-1.8-4.6-2-7.1c0,0.7,0.7,2.1,1.3,1C1.9,46,2,44.2,1.9,42.4c-0.1-0.7,0.4-1.9-0.5-2.2
				c-0.2,0.3-0.7,0.6-0.6,1c0.2,1.2-0.5,2.7,0.5,3.6c-0.7,0.3-0.4,1.2-0.4,1.7c-0.4-0.4-0.3-1-0.5-1.5l0-0.1c0-0.9-0.1-1.7-0.2-2.5
				C0,42.3,0,42.1,0,42C0,40.6,0,39.1,0,37.7c0-0.1,0-0.3,0-0.4c0.1-0.8,0.2-1.6,0.3-2.4l0-0.1C0.9,32,1.4,29,2.8,26.4
				c0.4-0.1,1.2-0.2,0.7-0.7l-0.1-0.1c-0.1,0-0.2-0.1-0.3-0.2c2.6-5.7,6.4-10.8,11.2-14.8c0.3-0.2,0.6-0.4,0.8-0.7
				c0,0,0.1-0.1,0.1-0.1c2.4-1.8,4.9-3.4,7.5-4.8c0.2-0.1,0.4-0.2,0.7-0.3c1.7-0.8,3.4-1.4,5-2.1c0.2-0.1,0.4-0.1,0.5-0.2
				c0.7-0.2,1.4-0.4,2.1-0.7l0.1,0c0.4,0,0.9-0.2,1.2-0.4c0.1,0,0.2,0,0.2,0C33.9,0.9,35.1,0.6,36.5,0.2L36.5,0.2z M8.5,16.7
				c0,0.2-0.6,0.9-0.1,0.7C8.7,17.3,9,16.9,8.5,16.7z M1.8,48.5l3.1,5c-1,0.3-0.6,2,0.4,1.5c0-0.4,0.4-1.7-0.4-1.5L1.8,48.5z
				 M2.5,48.9c0,0.3,0,1,0.5,0.9c-0.9,1.1-0.8,2.7,0.3,3.6c0.6,0.5,1.5,0.7,2.3,0.5L2.5,48.9z M0.5,49.7c0,0.2-0.1,0.7,0.3,0.6
				c3,4.7,3.2,4.2,2.8,4.4L0.5,49.7z M3.9,51.6c-0.5,0.5,1.3,0.5,0.4,1.4c4.4,5.1,3.5,3.3,2.6,3.5L3.9,51.6z M4.9,53.9
				c0.9-0.4,0.8,0.9,1.3,1.3l-0.1,0l-0.1-0.1c-0.3-0.4-0.5-1.1-1.1-1.2l-0.1,0c-0.1-0.2-0.3-0.6-0.6-0.5c-0.9,0.4-0.2,1.6,0.2,2.1
				l0,0.1c0.1,0.3,0.1,0.8,0.5,0.8l0,0.1c0,0.1,0,0.2,0,0.3c1.3,1.6,3,2.9,4.9,3.8c1.2,0.1,0.2-1.3-0.3-1.5c-0.1,0-0.2-0.2-0.3-0.2
				c0.2-0.2,0-0.6-0.3-0.4c-0.1-0.1-0.2-0.2-0.3-0.3c-0.2-0.6-0.7-1.1-1.2-1.4c-0.1-0.1-0.2-0.1-0.2-0.2c-0.1-0.6-0.5-1.1-0.9-1.5
				c1-0.1-0.3-0.9-0.4-1.4c2.9,4.3,1.7,4.3,2,5.1L4.9,53.9z"/>
		</g>
		<path id="Path_6472" class="st5" d="M55.5,1.3c0.1,0,0.2-0.2,0.3-0.2C55.9,1.2,56,1.3,56,1.4C55.9,1.4,55.7,1.4,55.5,1.3z"/>
		<path id="Path_6473" class="st4" d="M56.6,1.6c0.5,0,1,0.1,1.5,0.1l0.1,0C58.3,1.9,58.5,2,58.7,2c0,0,0.1,0,0.1,0
			c0.2,0,0.4,0,0.6,0c0.2,0.2,0.5,0.3,0.8,0.2c1.3,0.4,2.5,0.9,3.7,1.2c0.3,0.2,0.6,0.3,0.9,0.4C64.9,3.9,65,4,65.1,4
			C62.3,3.2,59.5,2.2,56.6,1.6z"/>
		<path id="Path_6474" class="st4" d="M31.7,4.1C37.1,2.3,42.8,1.6,48.4,2c0,1.1,2,0.2,2.7,0.5C51.1,2.6,51,2.8,51,3
			c-6.2-0.8-12.3,0.3-18.3,1.4C32.6,4.3,31.1,4.6,31.7,4.1z"/>
		<path id="Path_6475" class="st5" d="M51.2,2.9c0.2-0.2,0.5-0.3,0.7-0.1c0,0,0.1,0.1,0.1,0.1C51.8,3,51.5,3,51.2,2.9z"/>
		<path id="Path_6476" class="st5" d="M11.5,15.6c0.2-0.1,0.4,0,0.5,0.1c0,0.1,0.1,0.2,0,0.3C11.6,16.1,10.7,15.7,11.5,15.6z"/>
		<path id="Path_6477" class="st7" d="M4.4,57.2C4.7,57.6,4.9,58,5,58.4C4.6,58.1,4.4,57.7,4.4,57.2z"/>
		<path id="Path_6478" class="st7" d="M5.3,59c0.4,0.5,0.8,1.1,1.2,1.7C5.8,60.3,5.4,59.7,5.3,59z"/>
		<path id="Path_6479" class="st6" d="M19.1,68.5l0.1-0.1c0.5,0.4,1.1,0.7,1.7,0.9c0,0.1,0,0.2,0,0.3C20.2,69.5,19.5,69.1,19.1,68.5
			z"/>
		<path id="Path_6480" class="st8" d="M21.4,69.8c0.2,0.1,0.3,0.3,0.4,0.4l-0.1,0.1c-0.2,0-0.4-0.1-0.5-0.3
			C21.2,69.9,21.3,69.8,21.4,69.8z"/>
		<path id="Path_6481" class="st9" d="M26.7,72.8l0.1,0c0.3,0.2,0.6,0.5,0.9,0.7C27.5,74.2,26.5,73.5,26.7,72.8z"/>
		<path id="Path_6482" class="st2" d="M38.8,74.8c0.1,0.1,0.2,0.2,0.3,0.3v0.9c2-0.5,3.7,1.1,5.6,0.9c0.1,0,0.2,0.1,0.3,0.2
			c0.6,0.7,1.6,0.5,2.4,0.6c0.5,0.2,1.1,0,1.5-0.5c0.1,0,0.2,0,0.3-0.1c0.7,0.1,1.3,0,2-0.2c0.1,0.3,0.4,0.8-0.1,0.6
			c-1.7-0.3-3.1,0.8-4.9,0.3c-2.2-0.6-4.5-0.9-6.8-1c-1.2-0.4-2.9-1-3.9,0c0.2-1-0.5-1.4-1.2-1.7c0.1-0.1,0.3-0.2,0.4-0.3
			c0.1,0.1,0.3,0.1,0.4,0.2c0.2,0.1,0.5,0.1,0.7,0.1c0.2,0,0.4,0,0.6,0c0.2,0,0.4-0.1,0.7-0.1c0.2,0,0.4,0.1,0.6,0.1
			C38.1,75.2,38.5,75.1,38.8,74.8z"/>
	</g>
	<g id="Group_1458" transform="translate(338.781 319.31)">
		<g id="Group_1455" transform="translate(1.567 0)">
			<path id="Path_6483" class="st6" d="M38.8,0c0.1,0,0.2,0,0.4,0c1.1,0.1,2.1,0,3.2,0c0.2,0,0.3,0.1,0.5,0.1
				c0.5,0.1,0.9,0.1,1.4,0.2c0.1,0.1,0.3,0.1,0.4,0.1c2.1,0.1,4.1,0.6,6.3,0.6c0.1,0,0.2,0.1,0.3,0.1c0.2,0.1,0.4,0.1,0.5,0
				c0.1,0,0.2,0.1,0.4,0.1c0.1,0,0.1,0.1,0.2,0.1C55.2,2,58,3,60.8,3.8c0.7,0.3,1.4,0.5,2.2,0.8c0.3,0.3,0.7,0.5,1.1,0.7
				c0.4,0.2,0.9,0.3,1.4,0.4C65.7,5.8,66,6,66.4,6.1c0.4,0.2,0.7,0.5,1.1,0.7C67.6,7,67.8,7,68,7c0.3,0.2,0.6,0.3,0.9,0.5
				c0.6,0.3,1.2,0.7,1.8,1.2c0.4,0.4,0.8,0.7,1.3,1c0.1,0.1,0.3,0.2,0.4,0.2c0,0,0.1,0.1,0.1,0.1c0.1,0.2,0.3,0.2,0.5,0.3
				c0,0,0.1,0.1,0.1,0.1c0.5,0.5,0.9,1.3,1.6,1.3c0.2,0.1,0.4,0.2,0.5,0.3c0.8,0.8,1.6,1.6,2.5,2.3c0.1,0,0.1,0.1,0.2,0.1
				c0.1,0.2,0.2,0.4,0.3,0.6c-0.5-0.4-1-0.8-1.5-1.2c-0.3-0.2-0.6-0.5-0.9-0.7c0-0.2-0.2-0.4-0.5-0.4c-3-2.3-6.1-4.4-9.4-6.2
				c-3.1-1.6-6.5-2.8-9.9-3.5c1,0.8,2.8,1,4,1.6c4.4,1.6,8.5,3.9,12.3,6.8c0.1,0.4,0.6,0.8,0.3,1.3c-6-4.9-13.3-8-20.9-8.9
				c-2.4,0.4-4.7-0.4-7.1-0.1c-2.1,0.4-4.4-0.3-6.4,0.3c-1.1-0.3-2.4,0.1-3.6,0c-2.8-0.2-5.3,1.3-8,1.4c-1.7,0.5-3.3,1.2-4.8,2.1
				c-4.4,2-8.5,4.8-12,8.2c-1.1,1.1-1.5,2.7-2.6,3.8c-1,0.8-1.7,1.9-2.2,3c-0.6,1.6-1.8,3.1-1.7,5c-1.6,6.2-3.1,12.8-1.4,19.1
				c0.6,1.7,0.8,3.6,1.8,5.2C4.8,54,5.2,56.6,7.3,58c0.7,0.6,1,1.5,1.7,2.1c-0.1,0.6,0.1,1.1,0.5,1.5c5.8,6,13.2,10.1,21.4,11.9
				c3,0.5,5.9,1.6,8.9,1c0.6,0.4,1.4,0.4,2,0.1c0.6,0.4,1.4,0.5,2.1,0.2c2.2,0,4.4-0.1,6.7-0.3c1.8-0.6,4.4-0.1,5.5-1.9
				c0.6-0.4,1.5-0.5,2.1-0.1c1.9,0.2,3.8-0.9,5.7-1.3c-0.2,0.3-0.5,0.5-0.9,0.6c-0.6,0.2-1.2,0.8-1.9,0.6c-0.5,0.4-1.2,0.5-1.8,0.5
				c-3.6,1.6-7.8,1.7-11.6,2.7c-2.3-0.9-5,0.2-7.4-0.4c-0.9,0.2-1.5-0.5-2.4-0.3c-1-0.1-2.2,0.3-3.1-0.2c-0.1-0.1-0.2-0.2-0.3-0.3
				c-3.8-0.9-7.8-1.2-11.3-3c-3.7-1.2-6.7-3.7-9.7-5.9c-0.1,0-0.1-0.1-0.1-0.1c-0.2-0.2-0.4-0.3-0.7-0.3c-0.1-0.1-0.2-0.3-0.3-0.4
				c-4.7-4.4-8.8-9.7-10.8-15.8c-2.3-7.1-2-14.8,0.8-21.8c0.6-1.7,1.5-3.2,2.1-4.9c0.6-1.5,1.4-2.8,2.5-4c1.2-1.2,1.9-3,3.3-4
				c1.5-1,2.9-2.3,4.1-3.7c-1.4,0.3-2.4,1.6-3.4,2.4c-2.1,1.7-3.7,3.9-5.6,5.8c0.2-1.1,1.6-1.8,1-2.9c0,0.7-1.5,0.9-0.7-0.2
				c4-4.5,8.8-8.2,14.3-10.8c0.6,0.2,0.8-0.4,1.3-0.6c2.3-1,4.7-1.8,7.1-2.6c0.3-0.3,0.6,0.1,0.9,0.2c0.4,0,0.4-0.5,0.7-0.6
				c1.7-0.4,3.5-0.6,5.3-1h0.1c0.5,0,1,0,1.5-0.1c0.2,0,0.4-0.1,0.5-0.1C37.7,0.1,38.3,0.1,38.8,0z M27.4,3.9
				c-0.6,0.5,0.9,0.1,1,0.2C34.4,3,40.5,2,46.7,2.7c0.1,0,0.1,0,0.2,0c0.3,0.1,0.6,0.1,0.9,0c1.6-0.1,3.2,0.7,4.8,0.7
				c1,0.6,2.2,0,3.2,0.5C56.2,4,56,3.5,55.8,3.6C52.9,2.7,50,2.1,47,1.9c-1,0-1.9-0.2-2.8-0.2C38.5,1.4,32.8,2.1,27.4,3.9z
				 M54.8,2.9c0.2,0.3,0.9,0.6,1.1,0.2C55.5,3,55.2,2.9,54.8,2.9L54.8,2.9z M7.2,15.3c-0.8,0.2,0.2,0.6,0.5,0.4
				c0-0.2-0.1-0.4-0.3-0.4C7.4,15.3,7.3,15.3,7.2,15.3z"/>
		</g>
		<path id="Path_6484" class="st8" d="M80,15.6c0.9,0.6,1.7,1.4,2.4,2.4c-0.7-0.3-1-1.2-1.8-1.6C80.3,16.1,80.1,15.9,80,15.6z"/>
		<path id="Path_6485" class="st8" d="M5.8,17c0.4,0.1,0.2,0.6-0.1,0.7C5.3,18,5.8,17.3,5.8,17z"/>
		<path id="Path_6486" class="st8" d="M82.6,18.2c0.2,0,0.4,0.1,0.4,0.3c0,0.1,0,0.1,0,0.2C82.7,18.6,82.6,18.4,82.6,18.2z"/>
		<path id="Path_6487" class="st8" d="M83.4,19.2c0.3,0.2,0.6,0.4,0.7,0.8C83.8,19.8,83.6,19.5,83.4,19.2z"/>
		<path id="Path_6488" class="st8" d="M0,53.3c0.3,0.2,0.7,0.7,0.3,1l0-0.1C0.1,53.9,0.1,53.6,0,53.3z"/>
		<path id="Path_6489" class="st8" d="M2.9,54.2c0.2,0.3,0.4,0.6,0.5,0.9C2.8,55.2,2.9,54.6,2.9,54.2z"/>
		<path id="Path_6490" class="st8" d="M0.8,55c0.4-0.2,0.3,0.3,0.3,0.6C0.7,55.7,0.8,55.2,0.8,55z"/>
		<g id="Group_1456" transform="translate(1.684 55.989)">
			<path id="Path_6491" class="st4" d="M0,0.9c0-0.3-0.1-1,0.5-0.9c0.5,0.2,0.9,0.9,0.5,1.3C1.1,1.9,1.9,2.3,1.6,3
				c0.1,0.5,1.2,1.3,0.5,1.6L2,4.5C1.7,3.9,1.3,3.3,0.9,2.8C0.7,2.6,0.7,2.4,0.6,2.2C0.5,1.8,0.3,1.4,0,0.9L0,0.9z M0.7,1.9
				c0,0.2,0.1,0.4,0.3,0.6C1.3,3,1.2,1.7,0.7,1.9L0.7,1.9z"/>
		</g>
		<path id="Path_6492" class="st8" d="M4.2,56.9c0.8-0.2,1.7,1.6,0.4,1.4C5.5,57.4,3.7,57.4,4.2,56.9z"/>
		<path id="Path_6493" class="st8" d="M5.2,59.2c-0.3-0.8,0.9-0.8,1-0.1c0.1,0.5,1.4,1.3,0.4,1.4l-0.1,0C6,60.1,6.1,58.8,5.2,59.2z"
			/>
		<g id="Group_1457" transform="translate(7.68 61.538)">
			<path id="Path_6494" class="st4" d="M0,0c0.9,0,1.3,1,1.9,1.6C2.6,2.7,4,3,4.6,4.2c1.1,0.6,2,1.6,3.3,2c0.3,0.2,0.6,0.4,0.9,0.6
				c0.4,0.6,1.1,1,1.8,1.1c0.1,0.1,0.2,0.2,0.3,0.3c0.1,0.2,0.3,0.3,0.5,0.3c1.1,0.3,2.1,0.8,3.1,1.5c0.6,0.4,1.5,0.5,1.9,1.1
				c-0.2,0.6,0.7,1.4,1,0.6c0.6-0.4,1.2,0.2,1.8,0.3c1.4,0.8,3.1,0.8,4.6,1.4c0.7,0.3,1.5,0.7,1.2,1.7c1-1,2.7-0.4,3.9,0
				c2.3,0.1,4.6,0.5,6.8,1c1.7,0.5,3.1-0.7,4.9-0.3c0.5,0.1,0.2-0.4,0.1-0.6c0.4-0.4,0.9,0,1.3,0.3c1.1,0.3,1.9-0.6,2.9-0.9
				c1,0.1,2-0.1,2.8-0.5h1.1c0.5,0,0.8-0.3,1.1-0.6c0.2,0,0.5-0.1,0.6-0.3c0.6-0.1,1.3,0.2,1.8-0.2c0.7-0.2,1.4-0.3,2.1-0.3
				c-0.3,0.4-0.7,0.6-1.2,0.5c-2.5,1.1-5.2,1.8-7.9,2.3c-0.6,0.6-1.3,1-2.1,1.4c-1.1-0.1-1.9-1.2-3.1-1c-1.3,0.8-2.7,1.8-4.3,1.8
				c-0.7,0.9-1.6-0.5-2.4-0.4c-0.6-0.1,0-0.7,0.1-1c-0.4-0.4-0.8,0.1-1.2,0.1c-0.9-0.2-1.7,0.3-2.5,0.4c-0.2-0.3-0.1-0.7-0.2-1
				c-1.3,0.5-2.2-1.3-3.6-0.6c-0.7,0.9-1.9,0-2-0.8c-1.7-0.7-3.4-1.3-5.2-1.7c-0.6,0.4-1-0.2-1.4-0.5c-0.3,0.1-0.6,0.4-0.9,0.2
				c-1.6-1.6-3.8-2.3-5.9-3.1c-1.1,0.2-0.7-1.2-1.5-1.3C8.9,8.3,8.3,8.5,7.7,8.3C7.6,8.8,8.3,9.2,7.9,9.6c-0.5,0.6,0.5,0.7,0.8,0.9
				c1.1,0.8,2.3,1.6,3.5,2.3c-0.4-0.1-0.8-0.2-1.2-0.4c-1.6-0.8-3-1.8-4.4-2.9C4.3,7.8,2,5.8,0,3.5c0-0.1,0.1-0.1,0.1-0.2
				C1,4.1,2,4.6,2.9,5.3c0.4,0.4,1.4-0.1,0.9-0.8C3.3,4.1,3,3.5,2.5,2.9c0.7-0.1-0.3-0.8-0.1-0.1C1.7,1.9,0.7,1,0,0z M1.6,4.8
				c0.2,0.3,0.5,0.8,0.9,0.8C2.4,5.1,2,4.8,1.6,4.8L1.6,4.8z M2.5,5.7c0.9,0.9,1.9,1.8,2.9,2.5C5.3,7.7,5.3,7.1,5.6,6.6
				C4.9,6.5,4.3,6.5,3.7,6.4C3.4,6,3,5.7,2.5,5.7L2.5,5.7z M8,7.4L6.1,8.6c0.1,0.5,0.9,0.8,1.3,1C7.4,9,6.8,8.5,6.2,8.6c0,0,0,0,0,0
				L8,7.4z"/>
		</g>
		<path id="Path_6495" class="st8" d="M68.2,70c0.2-0.2,0.3-0.8,0.7-0.4C68.9,70,68.6,70,68.2,70z"/>
		<path id="Path_6496" class="st8" d="M66.8,70.7c0.4-0.3,0.8-0.7,1.4-0.7C67.7,70.4,67.3,70.6,66.8,70.7z"/>
		<path id="Path_6497" class="st8" d="M16.9,71.2c0.3,0,1,0.4,0.5,0.7C17,72.1,16.4,71.5,16.9,71.2z"/>
		<path id="Path_6498" class="st8" d="M20.3,74.5c0.4,0,0.8,0.2,1,0.5C21,75,20.6,74.8,20.3,74.5z"/>
		<path id="Path_6499" class="st8" d="M29.2,75.7"/>
		<path id="Path_6500" class="st8" d="M26,76.9c0.7,0,1.2-0.6,1.7-0.9c0.1,0.3,0.1,0.9,0.6,0.7c0.7-0.2,0.4,0.6,0.3,1
			c-0.7-0.1-1.3-0.6-2-0.3C26.3,77.2,26.1,77.1,26,76.9L26,76.9z"/>
		<path id="Path_6501" class="st8" d="M29.5,78c0.3-0.5,0.7-0.2,0.9,0.2c0.6-0.4,1.8-0.6,1.3,0.4h-0.9h-0.2
			C30.3,78.4,29.9,78.2,29.5,78z"/>
		<path id="Path_6502" class="st8" d="M35.6,79.5c0.3-0.2,0.5-0.1,0.7,0.1C36.3,80.2,35.8,79.6,35.6,79.5z"/>
	</g>
	<g id="Group_1463" transform="translate(347.975 319.391)">
		<path id="Path_6503" class="st10" d="M36.6,0.2c0,0,0.1-0.1,0.2-0.2c0.1,0,0.2,0,0.3,0c0,0.1,0,0.2,0,0.2
			C36.9,0.3,36.7,0.2,36.6,0.2z"/>
		<path id="Path_6504" class="st10" d="M39.4,1.8c3,0.2,5.9,0.8,8.8,1.7c0.3-0.1,0.4,0.4,0.1,0.3C47.1,3.4,46,3.9,45,3.3
			c-1.7,0-3.3-0.8-4.8-0.7c-0.2-0.2-0.5-0.3-0.7-0.1c0,0-0.1,0.1-0.1,0.1c-0.1,0-0.1,0-0.2,0c0.1-0.2,0.1-0.3,0.2-0.5
			C39.3,2,39.3,1.9,39.4,1.8z"/>
		<path id="Path_6505" class="st10" d="M65.4,10.4c0.3,0.2,0.6,0.4,0.9,0.6c0.2,0.3,0.5,0.5,0.8,0.7C66.3,11.7,65.9,10.8,65.4,10.4z
			"/>
		<path id="Path_6506" class="st10" d="M67.6,12c0.3,0.1,0.5,0.2,0.8,0.3l0.1,0.1c0.4,0.7,1.2,1.1,1.6,1.9
			C69.2,13.6,68.4,12.9,67.6,12z"/>
		<g id="Group_1459" transform="translate(0 14.436)">
			<path id="Path_6507" class="st10" d="M70.3,0C77.3,6.2,82.2,14.8,83,24.2c-0.1,0.6,0.6,0.8,0.6,1.3c-0.3,0.2-0.9,0.2-0.5,0.8
				c0.6,0.5,0.1,1.3,0.4,1.9c0.4,0.8,0.2,1.8,0.3,2.7c-0.7,0-0.4,0.9,0,1.2c0.7,0.6-0.7,1.9,0.4,2.2c0.9,0.3,0.3-1,0.1-1.4
				c0.8-0.5,0.2-1.4,0.5-2.2c0.4-0.9,0-2,0.4-3c0.3-0.5-0.5-1.2,0.1-1.5c0.5,0.6,0.2,2.3,1.2,1.5c0.4,0.6,1,1.1,0.9,1.9
				c1.5,1.1,1.4,3.3,2.7,4.6l0.1,0.1c0.2,0.5,0.3,1.1,0.3,1.7c0,0.1,0,0.3,0,0.4c-0.6,2.1-3.7,2.6-3.8,5c0.1,0.8,0.7,1.5,0.7,2.3
				c0.1,1.4,0.9,2.6,0.9,3.9c0.4,0.5,0.6,1,0.7,1.6l0,0.1c-0.7,0.7-0.5,2.1-1.8,2.2c-1.7,0.1-3.8,0.7-4.5,2.5c0,0.2-0.1,0.4-0.3,0.5
				c-0.5,0.3-1,0.7-0.7,1.3c0,1.7,0.9,3.4-0.1,5c0.5,0.6-0.3,0.8-0.5,1.3c0.8,1-1,1.3-1.6,1.2c-2.8-0.4-5.6,1-7,3.6
				c0,1.1-0.1,2.3-0.3,3.4c-0.2,0.5,0.4,1.2-0.2,1.4c-0.3-0.9-1.8,0.1-1.1,0.8c0.2,0.4-0.4,0.4-0.6,0.5c-0.4-0.4,0.6-1.4-0.7-0.9
				c-1.1,0.1-2.2,0.1-3.3,0c-2.3,0.8-4.6,2-6.5,3.5c-0.4,0.7-1,1.3-0.6,2.1c-0.4,0.2-1,0-1.3,0.5c-0.5,0.6-0.4-1.8,0.2-1.1
				c0.4,0.6,0.8-0.2,0.8-0.6c-0.3,0-0.7,0.1-1,0.1c-0.7-1.8-0.1-3.7,0.6-5.4c0.1-0.5-0.4-0.8-0.8-0.6c-0.1-1.3,2-1.2,2.6-2
				c0.5-0.5,0.8-1.2,0.8-2c0.4-0.8,1.2-1.4,2.1-1.5C62.3,64,63.7,64.8,64,64c0.3-0.4,1-0.4,1.2-1c-0.8,0.1-1.5,0.5-2,1.1
				c-1.3,0.4-2.4,1-3.7,1.3c-2.1,1.6-4.8,2-7.2,3c-0.9,0.8-2.3,0.4-3.4,0.7c-3.3,1.2-6.9,1.2-10.4,1.5c-4.1-0.1-8.2,0.3-12.2-0.8
				c-2.9-0.1-5.7-1.2-8.4-2.1c-2-0.4-3.6-1.6-5.4-2.3c-2-0.7-3.9-1.9-5.6-3.3c0.2-1-0.6-1.7-1.6-1.2c-2.3-0.9-3-3.5-4.9-4.9
				c-0.4-0.3-0.8-1.2-0.1-1.2c0.6,0.7,1.7,0.6,2.4,1.3c0.3,0.5,1.4,1.2,1.8,0.5c0.2,0,0.5,0.1,0.7,0.2c1.4,1.1,2.8,2.1,4.4,2.9
				c-0.8,0.5-0.8,1,0,1.4c-1.3,1.1,1,2.2,2.1,2.5c1.3,0,2.5,1.8,3.9,1.1c0.2-0.8,0.6-1.5,1.2-2c0.2,0.1,0.4,0.2,0.6,0.4
				c0.2,1.2-0.8,1.9-0.9,3c4.1,2.1,8.7,2.5,13.2,2.8c0.5,0.3,0.9,0.8,1.5,0.7c3.5,0.1,7.2,0.3,10.6-0.8c2.3,0,4.6-0.2,6.9-0.7
				c1.4-0.2,2.5-1.1,3.9-1.3c2.2-1.3,4.6-2.4,7-3.4c2.1-0.2,3.9-1.4,5.6-2.5c2.1-2,4.4-3.8,6.9-5.4c3.1-2,4.4-5.5,6-8.6
				c2.8-5.4,4.5-11.3,5.1-17.3c0.3-6.3-1.1-12.6-4.1-18.1c-0.4-0.1-0.6-0.3-0.5-0.8c-1-1.8-2.2-3.5-3.5-5.1
				c-0.1-0.3-0.4-0.6-0.7-0.8c-0.2-0.2-0.3-0.4-0.5-0.5c0.1-0.2-0.1-0.4-0.3-0.5c-0.1,0-0.1,0-0.2,0c0-0.1-0.1-0.2-0.2-0.2
				c-0.6-0.9-1.4-1.7-2.3-2.4c-0.1-0.1-0.2-0.3-0.3-0.4C70.5,0.4,70.4,0.2,70.3,0z M83.4,34.8c0,1.4-1.1,2.5-0.8,3.8
				c-0.2,1.4,0.3,0.2,0.8,0.3c0.3-0.8,0.2-1.6,0.6-2.3C84.5,36.1,84,35.1,83.4,34.8z M87.9,38.2c-0.4,0.2-0.2,0.9,0.3,0.8
				C88.2,38.8,88.2,38.2,87.9,38.2L87.9,38.2z M86.7,39l-4.4,1c-0.3,0.3-0.1,1.2,0.4,1.2c0.9,0.1,0.4-1.8-0.4-1.2L86.7,39z
				 M88.7,45.4c-0.4,0.2-0.7,1.3,0,1.1c-3.8,0.9-3.4-0.5-4.3-0.1L88.7,45.4z M83.4,48.4c-0.9,0.6-0.7,1.6-1.1,2.4
				c0.5-0.2,1.2-0.1,1.6,0.2c-0.1-0.4-0.6-0.6-0.5-1.1c-4.3,0.6-3.7-0.6-4.4-0.5L83.4,48.4z M91.3,50c-0.1,0.1-0.5,0.5-0.2,0.4
				c-4,1.2-3.6,0.4-4.2,0.6L91.3,50z M81.3,51c-0.8,0.6,0.3,1.3,1,1c-3.9,0.4-4.4-0.4-5.3,0L81.3,51z M76.8,56.1
				c-0.2,0.1-0.3,0.1-0.4,0.3c-0.7,1.4-2.3,1.8-3.3,2.8c-1.7,0.4-2.6,2.1-2.2,3.8c0,0.1,0.1,0.2,0.1,0.3c0.6-0.2,1.2-0.2,1.8-0.2
				c0.9-0.6,1.9-1,2.3-2.1c1.8-0.7,1.2-2.9,2.2-4.2c-4.1,0.7-4.3,0-4.8,0.3L76.8,56.1z M81.4,56.5c-0.5,0.3-1,0.8-0.8,1.4
				c0.6-0.2,1.2-0.4,1.7-0.8c-4.2,0.5-4.7,0-5.3,0.3L81.4,56.5z M5.2,58.7c-0.5,0.4,0.2,0.7,0.6,0.6C5.9,58.9,5.6,58.6,5.2,58.7z
				 M7.1,59.5l68.6,2.9c-0.5,0.5,0.1,0.6,0.5,0.7c0.7,0.4-0.1-0.9-0.5-0.7L7.1,59.5z M65.9,67.2c-0.3,0.2-0.6,0.5-0.5,0.8
				C66.1,68.3,67.1,66.9,65.9,67.2z M59.9,72.3c0.1,0.3-0.3,1.3,0.1,1.3C60,73.2,60.4,72.2,59.9,72.3L59.9,72.3z"/>
		</g>
		<path id="Path_6508" class="st10" d="M74.1,20.9c-0.2,0.7-0.9,0.4-0.1-0.1L74.1,20.9z"/>
		<path id="Path_6509" class="st10" d="M85.3,34.5c1.1,0.8,1.9,2.1,2.2,3.5c-0.2,0.6-0.7,1.1-0.9,1.7c-0.6,0.2-0.6-0.5-0.7-0.8
			c-0.5-1.1-0.5-2.3-1-3.4C84.8,35.1,85.1,34.7,85.3,34.5z"/>
		<path id="Path_6510" class="st10" d="M4.9,65.1c0.3,0,0.5,0.1,0.7,0.3C5.3,65.5,5,65.4,4.9,65.1z"/>
		<path id="Path_6511" class="st10" d="M5.8,65.5c3.1,2.2,6.1,4.8,9.7,5.9c3.5,1.8,7.5,2.1,11.3,3c-0.3,0.3-0.7,0.5-1.1,0.4
			c-0.1-0.6-0.3-0.6-0.6-0.1c-0.2,0-0.4,0.1-0.7,0.1c0-0.7-0.6-0.6-0.6,0c-0.2,0-0.5,0-0.7-0.1c-0.1-0.4-0.1-0.7-0.2-1.1
			c-0.1,0.3-0.2,0.6-0.3,0.9c-0.1,0.1-0.3,0.2-0.4,0.3c-1.5-0.5-3.1-0.6-4.6-1.4c-0.6-0.1-1.2-0.7-1.8-0.3c0.1-0.4,0.5-0.9,0.1-1.2
			c-0.5-0.2-0.7,0.2-1,0.5l-0.1,0c-0.4-0.7-1.3-0.7-1.9-1.1c-0.9-0.6-2-1.1-3.1-1.5l0.1-0.1c0.6-0.5,0-1.2-0.7-1.1
			C8.9,68,8,67.5,7.3,68.1l-0.1,0.1c-0.3-0.2-0.6-0.4-0.9-0.6l0.1-0.1C7.2,66.8,5.7,66.3,5.8,65.5z"/>
		<path id="Path_6512" class="st10" d="M9,69c0.2,0,0.3,0.3,0.5,0.4c0,0-0.1,0.1-0.2,0.2c-0.1-0.1-0.2-0.2-0.3-0.3
			C9,69.3,9,69.1,9,69z"/>
		<g id="Group_1460" transform="translate(27.113 71.844)">
			<path id="Path_6513" class="st10" d="M26.4,0.6c0.7,0.2,1.3-0.4,1.9-0.6c0.4,0.6-0.4,0.8-0.8,0.9c-0.9-0.1-1,1.5-2,0.8
				c-0.7-0.8-1.2,0.5-1.8,0.8c-0.5,0.4-1.2,0.1-1.8,0.2c-0.3-0.3-0.6,0-0.6,0.3c-0.3,0.3-0.7,0.6-1.1,0.6c-0.1-0.8-0.8-0.6-1.1,0
				c-0.9,0.4-1.9,0.6-2.8,0.5c-1,0.3-1.8,1.2-2.9,0.9c-0.4-0.3-0.9-0.7-1.3-0.3c-0.6,0.2-1.3,0.2-2,0.2c-1.5-0.2-3-0.1-4.4-0.3
				C3.6,4.9,2,3.3,0,3.8V2.9C0.9,3.4,2.1,3,3.1,3.1C4,2.9,4.6,3.6,5.5,3.4C8,4,10.6,2.9,12.9,3.8c3.9-0.9,8-1.1,11.6-2.7
				C25.2,1.1,25.9,1,26.4,0.6z"/>
		</g>
		<path id="Path_6514" class="st10" d="M11.7,76.5c-0.4-0.7-0.3-1.7,0.9-1.2c0.2,0.1,0.4,0.1,0.6,0.2C13.6,76.3,12.3,76.6,11.7,76.5
			z"/>
		<path id="Path_6515" class="st10" d="M21.4,78.5h0.2C21.8,79,21.1,79,21.4,78.5z"/>
		<path id="Path_6516" class="st10" d="M29.4,80.9"/>
		<g id="Group_1461" transform="translate(41.114 86.449)">
			<path id="Path_6517" class="st10" d="M11,0c1,0,3.1-0.3,2.9,1.4c1,1.5,0.1,3.4,0.5,5c-0.1,1.2-1.6,0.4-2.4,0.4
				c-0.7,0.1-1.3-0.3-2-0.4c0.1-0.4,0.1-0.8-0.1-1.2C9.6,4.3,11.3,3.7,10.5,3C9.3,2.7,8.1,3.4,7,3.8C6.3,4.1,6.4,4.9,6.5,5.5
				C6.3,6.1,6.2,6.8,6.4,7.4C5.4,8.1,4,8.5,3.7,9.8c-0.3,1.1-1.3,1.8-2.4,1.7c-0.4,0-1.1,0.3-1.3-0.1c0.5-0.4,1.2-0.6,1.9-0.6
				c0-1.2-0.2-2.5,0.5-3.5c-0.3-1.9,0.8-3.4,1.5-5c0.8-0.4,1.4-1,1.9-1.7c0.7,0.1,0.4,1,0.8,1.5c0.1,0.9,1.2,0.7,1.8,0.5
				C9,1.4,9.9,0.6,11,0z M4.7,3.8C3.8,4.4,3.8,6,4.1,6.8c0.6-0.3,0.5-1.4,0.8-1.9C5.1,4.4,5.6,3.5,4.7,3.8L4.7,3.8z"/>
		</g>
		<path id="Path_6518" class="st10" d="M15.3,87.5c0.5-0.1,1.6,0,1.6,0.7c-0.3,0.8-1.4,1.3-2.1,0.6c-0.3-0.4-0.2-0.9,0.2-1.1
			C15.1,87.5,15.2,87.5,15.3,87.5z"/>
		<path id="Path_6519" class="st10" d="M22.6,89.5c1.4,0.5,1.7,2.5,0.9,3.6C22.6,92.2,22.2,90.8,22.6,89.5z"/>
		<g id="Group_1462" transform="translate(28.41 89.763)">
			<path id="Path_6520" class="st10" d="M2.1,0.1c0.7-0.1,1.4,0.1,1.8,0.7C4.1,1.6,3,2,3.4,2.9c0.3,0.8-0.2,1.5-0.2,2.2
				C2.6,5.6,1.8,5.7,1.2,6.2C0.9,6.4,0.8,7,0.3,6.9c0.3-1.9-1-4.1,0.3-5.8C1,0.6,1.3-0.1,2.1,0.1z M2.2,1.4C1.9,1.5,1.6,2.2,2.2,2
				C2.3,1.9,2.7,1.1,2.2,1.4z"/>
		</g>
		<path id="Path_6521" class="st10" d="M37.6,90.1c1.1,0,2.1,0.9,2.1,2c0,0.1,0,0.2,0,0.2c0,1.4,0.1,2.8,0,4.2
			c-1-0.5-1.8-1.2-2.4-2.1c-0.8-1.1,0.5-2.6-0.6-3.6C36.4,90.3,37.2,90.2,37.6,90.1z"/>
		<path id="Path_6522" class="st10" d="M15.4,90.2c0.6,0,1.2,0.6,1.1,1.2c0,0.3-0.1,0.6-0.3,0.8c-0.7,0.2-1.4,0.3-2.1,0.5
			C14.2,91.7,14.7,90.8,15.4,90.2z"/>
		<path id="Path_6523" class="st10" d="M58.9,92.8c0.2,0.1,0.5,0.3,0.4,0.6C59,93.8,58.9,93.1,58.9,92.8z"/>
	</g>
	<g id="Group_1465" transform="translate(341.214 321.95)">
		<path id="Path_6524" class="st11" d="M53.1,0"/>
		<path id="Path_6525" class="st11" d="M54.1,0.3c0.4,0,0.7,0.1,1.1,0.2C54.9,0.8,54.3,0.6,54.1,0.3z"/>
		<path id="Path_6526" class="st11" d="M55.3,0.6c3.5,0.7,6.8,1.9,10,3.5c3.3,1.8,6.5,3.9,9.5,6.2c0,0.2,0.2,0.4,0.4,0.4
			c0,0,0,0,0.1,0c0.3,0.2,0.6,0.5,0.9,0.7c0.4,0.7,1,1.2,1.8,1.6c0.1,0.3,0.3,0.6,0.6,0.7c0.1,0.2,0.2,0.4,0.3,0.6
			c-1.6-1.4-3.1-3-5-3.9c-0.7-0.5-1.4-1-2-1.5c-3.7-2.8-7.9-5.1-12.3-6.8C58,1.5,56.3,1.3,55.3,0.6z"/>
		<path id="Path_6527" class="st11" d="M37.4,1.5c2.1-0.6,4.3,0.1,6.5-0.3C46.2,1,48.6,1.7,51,1.4c7.7,1,15,4.1,21,8.9
			c1.2,1,2.3,2,3.4,3.1c0.7,1.4,1.9,2.6,2.2,4.1c0.5,0.6,1.2,1.2,1.7,1.8c0,2.7,2,4.8,2.2,7.4c0.1,0.5,0.3,0.9,0.7,1.3
			c0,1.6,0.3,3.2,0.9,4.6c-0.2,0.7,0,1.3,0.5,1.8c-0.5,1.4,0,2.8,0.1,4.2c-0.5,1.4,0.4,2.7,0.1,4.1c0.6,2.4-0.3,4.8-1.3,7
			c-0.2,0.7-1.1,1.7-0.2,2.2c0,0.1-0.2,0.2-0.2,0.3c-0.2-0.1-0.5-0.1-0.7-0.1c-2.7,4-5.8,7.7-9.3,11c-0.2,0.2-0.3,0.5-0.3,0.7
			c-0.3,0.2-0.5,0.3-0.8,0.5c-0.7,0.2-1.3,0.6-1.7,1.1c-0.8,0.7-1.7,1.2-2.7,1.4c-0.3-0.3-0.5,0.3-0.7,0.4l-0.1,0.1
			c-0.6-0.1-1,0.4-1.4,0.7c-0.4,0.2-0.8,0.4-1.3,0.6c-1.9,0.3-3.8,1.4-5.7,1.3c-0.7-0.4-1.5-0.3-2.1,0.1c-1.1,1.8-3.7,1.3-5.5,1.9
			c-2.2,0.2-4.4,0.3-6.7,0.3c-0.7,0.3-1.5,0.2-2.1-0.2c-0.7,0.3-1.4,0.2-2-0.1c-3.1,0.6-6-0.5-9-1C21.9,69.2,14.4,65,8.6,59
			c-0.4-0.4-0.6-1-0.5-1.5c-0.6-0.6-1-1.5-1.7-2.1c-2.1-1.4-2.5-4.1-3.6-6.2c-1-1.6-1.2-3.5-1.8-5.2c-1.7-6.3-0.2-12.9,1.4-19.1
			c-0.1-1.8,1.1-3.3,1.7-5c0.5-1.2,1.2-2.2,2.2-3c1.1-1.1,1.5-2.7,2.6-3.8c3.5-3.4,7.6-6.2,12-8.2C22.4,4,24,3.3,25.7,2.8
			c2.7-0.1,5.3-1.5,8-1.4C35,1.6,36.2,1.2,37.4,1.5z"/>
		<path id="Path_6528" class="st11" d="M78.9,14.4c0.2,0.1,0.4,0.3,0.5,0.6C79,15,78.8,14.7,78.9,14.4
			C78.8,14.4,78.8,14.4,78.9,14.4z"/>
		<path id="Path_6529" class="st11" d="M82.5,25.8"/>
		<path id="Path_6530" class="st11" d="M0,55.3c0.4-0.3,0.6,1,0.3,0.6C0.1,55.7,0,55.5,0,55.3z"/>
		<path id="Path_6531" class="st11" d="M7.7,61.7C7.4,61,8.5,61.7,7.7,61.7L7.7,61.7z"/>
		<path id="Path_6532" class="st11" d="M6.9,63.7c0.4,0,0.8,0.3,0.9,0.8C7.3,64.5,7.1,64,6.9,63.7z"/>
		<path id="Path_6533" class="st11" d="M7.7,64.6c0.5,0,1,0.3,1.2,0.7c0.6,0.1,1.2,0.1,1.9,0.2c-0.2,0.5-0.3,1.1-0.1,1.6
			C9.6,66.4,8.6,65.5,7.7,64.6z"/>
		<path id="Path_6534" class="st11" d="M13.3,66.3"/>
		<g id="Group_1464" transform="translate(13.003 66.783)">
			<path id="Path_6535" class="st11" d="M0,0.5c0.5,0.2,1.1,0,1.5-0.5C2.3,0,2,1.5,3,1.3c2.1,0.8,4.3,1.5,5.9,3.1
				c0.3,0.2,0.6-0.1,0.9-0.2c0.4,0.4,0.8,0.9,1.4,0.5c1.8,0.4,3.5,1,5.2,1.7c0.1,0.9,1.3,1.7,2,0.8c1.4-0.8,2.3,1,3.6,0.6
				c0.1,0.3,0,0.7,0.2,1c0.9-0.1,1.7-0.6,2.5-0.4c0.4,0.1,0.8-0.5,1.2-0.1c-0.1,0.3-0.7,0.9-0.1,1c0.8-0.1,1.7,1.3,2.4,0.4
				c1.6-0.1,3-1,4.3-1.8c1.2-0.3,2,0.9,3.2,1c0.8-0.4,1.5-0.8,2.1-1.4c2.7-0.5,5.4-1.2,7.9-2.3c0.5,0.1,0.9-0.1,1.2-0.5
				c0.9-0.3,1.9-0.6,2.7-1.1c-0.3,1.3-1.9,1.3-2.5,2.3c-0.9-0.1-0.4,1.6-1.2,0.7c-3.9,1.5-7.8,2.8-11.9,3.8c-0.3,0-0.5,0-0.8,0
				c-1-0.1-2,0-3,0.3c-3.1-0.1-6.2-0.3-9.3-0.7c-0.2-0.2-0.5-0.4-0.7-0.1c-1.3-0.2-2.6-0.5-3.9-0.9c0.6-1-0.7-0.8-1.3-0.4
				c-0.2-0.3-0.6-0.6-0.9-0.2c-0.4,0-0.7-0.2-1-0.4c0.2-0.4,0.4-1.2-0.3-1c-0.5,0.2-0.4-0.4-0.6-0.7c-0.6,0.3-1.1,0.8-1.7,0.9
				c-1.3-0.3-2.4-1-3.7-1.3C6.7,6,6.5,6,6.3,5.9L5.9,5.7c-0.2-0.3-0.6-0.5-1-0.5C4.8,5.1,4.7,5,4.6,5C3.3,4.3,2.1,3.5,1,2.7
				C0.7,2.4-0.3,2.3,0.2,1.7C0.5,1.3-0.1,0.9,0,0.5z M1.5,1.8C1,2.1,1.6,2.7,2,2.5C2.5,2.2,1.8,1.7,1.5,1.8L1.5,1.8z"/>
		</g>
		<path id="Path_6536" class="st11" d="M11.4,67.5c0.6-0.1,1.2,0.4,1.3,1c0,0,0,0,0,0C12.3,68.3,11.5,68,11.4,67.5z"/>
	</g>
	<g id="Group_1467" transform="translate(353.046 330.91)">
		<path id="Path_6537" class="st6" d="M59.9,1.3c0.3-0.6-0.2-0.9-0.3-1.3c0.7,0.5,1.4,1,2,1.5c1.2,1.2,2.6,2.3,3.7,3.6
			c0.1,0.4,0.5,0.6,0.8,0.8L66.2,6c0.1,0.4,0.1,0.9,0.3,1.3c-0.4-0.2-0.7-0.6-1.1-0.8c-0.8-0.6-1.2-1.6-2.1-2.2
			C62.2,3.3,61.1,2.3,59.9,1.3z"/>
		<path id="Path_6538" class="st12" d="M62.7,1.3c0.2,0,0.4,0.2,0.5,0.4C62.9,1.7,62.7,1.5,62.7,1.3C62.7,1.3,62.7,1.3,62.7,1.3z"/>
		<path id="Path_6539" class="st12" d="M64,2.4c0.5,0.4,1,0.8,1.5,1.2c0.1,0.1,0.2,0.3,0.3,0.4C65,3.6,64.4,3.1,64,2.4z"/>
		<g id="Group_1466" transform="translate(11.386 4.734)">
			<path id="Path_6540" class="st6" d="M54.9,0c0.7,0.4,1,1.3,1.8,1.6c0,0.1,0.1,0.2,0.2,0.2c0,0.2,0.2,0.4,0.4,0.5
				c0.1,0.2,0.3,0.4,0.5,0.5c0.1,0.3,0.4,0.6,0.7,0.8c1.3,1.6,2.4,3.3,3.5,5.1c-0.1,0.4,0.1,0.6,0.5,0.8c3,5.5,4.4,11.8,4.1,18.1
				c-0.6,6-2.4,11.9-5.1,17.3c-1.6,3.1-2.9,6.6-6,8.6c-2.5,1.5-4.8,3.3-6.9,5.4c-1.7,1.1-3.5,2.3-5.6,2.5c-2.4,1-4.7,2.1-7,3.4
				c-1.4,0.2-2.5,1.1-3.9,1.3c-2.3,0.5-4.6,0.7-6.9,0.7c-3.4,1.1-7.1,0.9-10.6,0.8c-0.6,0.1-1-0.4-1.5-0.7C8.7,66.5,4,66.1,0,64
				c0.1-1.1,1.1-1.8,0.9-3c0.7-0.3,1.3,0.2,2,0.3c0.3,0.2,0.7,0.3,1,0.4C4.3,61.8,4.6,62,5,62.3c-0.3,0.5,0.4,0.5,0.2,0h0.9
				c1.3,0.4,2.6,0.7,3.9,0.9c0.2,0.2,0.7,0.7,0.7,0.1c3.1,0.4,6.1,0.7,9.2,0.7c1-0.1,2.1,0.2,3-0.3c0.3,0,0.5,0,0.8,0l0.4,0.1
				c1.3-0.3,1.6,1.5,2.9,1.1c1-0.1,0.6-1.6,1.7-1.7c0.8,0.2-0.4,1.2,0.2,1.6c0.5,0.1,0.9-0.3,1.3-0.4c1-0.6,2.3,0,3.3-0.6
				c1.8-1.2,4.4-1.1,5.7-3c1,0.4,1.5-0.7,2.4-0.5c1,0,1.1-1.4,2.1-1c1.5-0.8,3.3-1.4,4.4-2.8c0.9-0.5,2.1-0.6,2.7-1.6
				c0.7-1,2.3-1.1,2.8-2.3c0.7-0.2,1.4-0.7,1.8-1.3c1.9-1.1,2.8-3.2,4.2-4.7c2.1-3.8,4.4-7.6,5.4-11.8c0.7-2.3,1.1-4.6,1.2-6.9
				c0.1-0.9,0.1-1.7,0-2.6c0.1-1.9-0.5-3.8-0.6-5.8c0-0.3-0.1-0.5-0.4-0.6c-0.4-1.8-1-3.6-1.7-5.4c-0.2-1-0.7-1.8-1.3-2.6
				c0.1-0.8-0.7-1.2-0.8-1.9c-1.6-2.8-3.5-5.4-5.7-7.7c0-0.3-0.2-0.5-0.5-0.6c0,0-0.1-0.1-0.2-0.1C55.2,0.4,55.1,0.2,54.9,0z
				 M13,64.6l8.9,0c-0.3,0.1-0.5,0.4-0.7,0.7c-0.1,0.8,1.3,0.2,1.6,0.2c0.6-0.6-0.4-0.9-0.9-0.9L13,64.6z"/>
		</g>
		<path id="Path_6541" class="st12" d="M66.6,8.1c0-0.2,0-0.6,0.3-0.5c0.6-0.1,0.5,1.2-0.1,0.7C66.8,8.3,66.7,8.2,66.6,8.1z"/>
		<path id="Path_6542" class="st12" d="M67.7,9.2c0.4,0.2,0.7,0.4,1.1,0c0.1,0,0.1,0.1,0.2,0.1c-0.8,0.4-0.1,0.8,0.1,0.1
			c0.4-0.4,0.2,0.2,0.1,0.4C68.5,10.4,68,9.8,67.7,9.2z"/>
		<path id="Path_6543" class="st12" d="M73.2,36.1c0.3,0.1,0.9,0.1,0.9,0.6C73.9,37,72.8,36.4,73.2,36.1z"/>
		<path id="Path_6544" class="st12" d="M82.9,41.1c0.3,0,0.3,0.6,0.3,0.8C82.7,42,82.5,41.3,82.9,41.1z"/>
		<path id="Path_6545" class="st12" d="M81.7,41.9"/>
		<path id="Path_6546" class="st12" d="M70.2,42.9l0.1,0.1c0.2,0.3,0.7,0.5,0.7,1c-0.4-0.1-0.7-0.2-1-0.4v-0.4
			C70.1,43.2,70.2,43,70.2,42.9z"/>
		<path id="Path_6547" class="st12" d="M67.9,46.7c0.1-0.2,0.2-0.3,0.4-0.5C69.1,46.6,68.4,47.5,67.9,46.7z"/>
		<path id="Path_6548" class="st12" d="M79.2,49.4c0.9-0.4,0.5,1,0,1.1C78.5,50.7,78.8,49.6,79.2,49.4z"/>
		<path id="Path_6549" class="st7" d="M59,55.4c0.3-0.2,0.5-0.3,0.8-0.5l0.1,0c0.5,1.5-1.8,1.7-2.3,2.8c-0.4,0.6-1.4,0.5-1.5,1.3
			c-0.5,0.5-1.1,0.8-1.8,0.8c-0.2-0.1-0.5,0.1-0.6,0.3c0,0,0,0.1,0,0.1c-1,0.6-2,1-3.1,1.4c-0.9,0.4-1.8,0.8-2.7,1.1
			c-0.7-0.1-1.4,0-2.1,0.3c0.6-0.4,1.1-1.6,1.8-0.8c1,0.6,1.1-1,2-0.8c0.5-0.1,1.2-0.3,0.8-0.9c0.3-0.1,0.6-0.3,0.9-0.6
			c0.4-0.2,0.8-0.4,1.3-0.6c0.5-0.1,1-0.3,1.4-0.7l0.1-0.1c0.4,0,0.7,0,0.7-0.4c1-0.3,1.9-0.8,2.7-1.4C57.9,56.3,58.5,55.9,59,55.4z
			"/>
		<path id="Path_6550" class="st12" d="M71.9,60.5c0.6-0.4,1.2,0.1,1,0.7c-0.5,0.3-1.1,0.6-1.7,0.8C71,61.3,71.5,60.8,71.9,60.5z"/>
		<path id="Path_6551" class="st12" d="M0.2,61.6c0.4-0.2,0.7,0.2,0.6,0.6C0.3,62.4-0.3,62,0.2,61.6z"/>
		<path id="Path_6552" class="st12" d="M2.1,62.4"/>
		<path id="Path_6553" class="st6" d="M4.5,62.4c0.4,0.2,0.8,0.3,1.2,0.4c0.1,0.1,0.3,0.1,0.4,0.2c0.3,0.3,0.6,0.4,1,0.5
			c0.1,0.1,0.3,0.2,0.4,0.3c-1.2-0.5-1.3,0.5-0.9,1.2c0.6,0.1,1.9-0.2,1.5-1c1.3,0.3,2.4,1,3.7,1.3l0,0.1c-0.6,0.5-1.1,1.2-1.2,2
			c-1.3,0.7-2.5-1.1-3.9-1.1c-1-0.2-3.3-1.4-2.1-2.5C3.7,63.4,3.7,62.9,4.5,62.4z"/>
		<path id="Path_6554" class="st12" d="M43.3,63.4c0.1-0.3,0.4-0.6,0.6-0.3C43.8,63.3,43.6,63.4,43.3,63.4z"/>
		<path id="Path_6555" class="st12" d="M41.1,63.9c0.3-0.6,1-0.8,1.1,0H41.1z"/>
		<path id="Path_6556" class="st12" d="M36.9,64.1"/>
		<path id="Path_6557" class="st12" d="M70.6,65.3c0.4-0.2,1.2,1.1,0.5,0.7C70.8,65.9,70.1,65.7,70.6,65.3z"/>
		<path id="Path_6558" class="st12" d="M60.9,70.1c1.1-0.3,0.2,1.1-0.5,0.8C60.3,70.6,60.6,70.3,60.9,70.1z"/>
		<path id="Path_6559" class="st12" d="M54.9,75.2c0.5,0,0,1,0.1,1.3C54.5,76.5,54.9,75.5,54.9,75.2z"/>
		<path id="Path_6560" class="st12" d="M40.7,78.7c0.9-0.3,0.4,0.6,0.2,1.1c-0.3,0.6-0.2,1.6-0.8,1.9C39.8,80.9,39.8,79.3,40.7,78.7
			z"/>
		<path id="Path_6561" class="st12" d="M25.6,79.6c0.5-0.2,0.1,0.5-0.1,0.7C25,80.4,25.3,79.7,25.6,79.6z"/>
	</g>
	<g id="Group_1469" transform="translate(384.376 332.396)">
		<path id="Path_6562" class="st11" d="M30.3,0c1.9,0.9,3.4,2.5,5,3.9c0.1,0,0.1,0.1,0.2,0.1c0,0.3,0.1,0.5,0.4,0.6c0,0,0,0,0.1,0
			c2.2,2.3,4.1,4.9,5.7,7.7c0.1,0.7,0.9,1.1,0.8,1.9c0.6,0.7,1.1,1.6,1.3,2.6c0.7,1.7,1.3,3.5,1.7,5.4c-0.1,0.3,0.1,0.5,0.4,0.6
			c0,0,0,0,0,0c0.1,1.9,0.6,3.8,0.6,5.8c-0.6,0.7,0,1.7,0,2.6c-0.1,2.4-0.5,4.7-1.2,6.9c-0.8,2.2-1.7,4.4-2.8,6.6
			c-4.8,8.2-12.2,14.6-21,18.2c-1.3,0.7-2.7,1.1-4.1,1.4c-2.4,1.2-5,1.6-7.6,2.2c-1.8-0.1-3.5,0.8-5.4,0.7l-0.4-0.1
			c4-1,8-2.3,11.8-3.8c0.7,0.9,0.3-0.8,1.2-0.7c0.6-1.1,2.2-1,2.5-2.3c1.1-0.4,2.1-0.9,3.1-1.4c0.3,0,0.5-0.2,0.6-0.4
			c0.7-0.1,1.3-0.4,1.8-0.8c7.3-4.1,13.6-10.3,16.9-18C44,34,44.7,28,43.8,22.2c-0.9-5-2.9-9.8-6-13.9c0.1-0.3,0.3-0.8-0.1-0.4
			l-0.1-0.1c-0.1,0-0.1-0.1-0.2-0.1c-0.7-1.2-1.6-2.2-2.5-3.2l-0.1-0.1c-0.2-0.3-0.5-0.6-0.8-0.8C32.9,2.3,31.6,1.2,30.3,0z"/>
		<g id="Group_1468" transform="translate(31.991 2.916)">
			<path id="Path_6563" class="st11" d="M0,0C0.8,0.6,1.3,1.5,2,2.2c0.4,0.5,0.9,1,1.3,1.5C3.4,3.8,3.4,3.9,3.5,4
				c4.1,5.3,6.6,11.6,7.1,18.2c0.2,4.6-0.5,9.3-2.1,13.6c-0.3,1-0.8,2-1.5,2.8l-0.1-0.1c-0.9-0.6,0-1.5,0.2-2.2c1-2.1,1.8-4.6,1.3-7
				c0.3-1.4-0.6-2.7-0.1-4.1c-0.1-1.4-0.5-2.8-0.1-4.2c-0.5-0.5-0.7-1.2-0.5-1.8c-0.6-1.5-0.9-3-0.9-4.6c-0.3-0.3-0.6-0.8-0.7-1.3
				c-0.2-2.6-2.3-4.7-2.2-7.4C3.3,5.3,2.7,4.8,2.1,4.2C1.9,2.6,0.7,1.4,0,0z"/>
		</g>
		<path id="Path_6564" class="st11" d="M38,41.6c0.2,0,0.5,0.1,0.7,0.1v0.4c-0.5,0.9-1.1,1.8-1.8,2.6c-0.1,0.1-0.2,0.3-0.4,0.5
			c-2.3,3.1-5,5.8-8,8.1l-0.1,0c0-0.3,0.1-0.5,0.3-0.7C32.2,49.3,35.3,45.6,38,41.6z"/>
		<path id="Path_6565" class="st11" d="M26,55c0.4-0.6,1-1,1.7-1.1C27.2,54.4,26.6,54.8,26,55z"/>
		<path id="Path_6566" class="st11" d="M0,67.3c1-0.3,2-0.4,3-0.3C2.1,67.5,1,67.1,0,67.3z"/>
	</g>
	<g id="Group_1471" transform="translate(385.625 336.041)">
		<path id="Path_6567" class="st6" d="M32.8,0c0.3,0.3,0.5,0.6,0.8,0.8C33.2,0.6,32.9,0.4,32.8,0z"/>
		<g id="Group_1470" transform="translate(23.469 0.915)">
			<path id="Path_6568" class="st6" d="M10.2,0c1,1,1.8,2,2.5,3.2c-0.3,0.4-0.7,0.2-1.1,0c0.3,0.6,0.8,1.1,1.5,0.6
				c3,4.1,5.1,8.8,6,13.9c0.9,5.8,0.2,11.8-2.2,17.2c-3.3,7.7-9.6,13.9-16.9,18c0.1-0.7,1.2-0.7,1.5-1.3c0.5-1.1,2.8-1.3,2.3-2.8
				c3-2.3,5.7-5.1,8-8.1c0.5,0.8,1.2-0.1,0.4-0.5c0.6-0.8,1.2-1.7,1.8-2.6c0.3,0.2,0.7,0.3,1,0.4c0-0.4-0.5-0.7-0.7-1
				c0.6-0.9,1.1-1.8,1.5-2.8c1.6-4.3,2.4-9,2.1-13.6c-0.6-6.6-3-13-7.1-18.2c0.7,0.5,0.8-0.8,0.1-0.7c-0.4-0.1-0.3,0.2-0.3,0.5
				c-0.4-0.5-0.9-1-1.3-1.5c0.4,0.2,0.7,0.6,1.1,0.8C10.3,0.9,10.3,0.4,10.2,0z M17.2,30.1c-0.5,0.3,0.7,0.9,0.9,0.6
				C18.1,30.2,17.5,30.2,17.2,30.1z"/>
		</g>
		<path id="Path_6569" class="st6" d="M44.2,18.4c0.2,0.1,0.4,0.4,0.4,0.6C44.3,19,44.1,18.7,44.2,18.4
			C44.2,18.4,44.2,18.4,44.2,18.4z"/>
		<path id="Path_6570" class="st6" d="M45.1,27.3c0.1-0.8-0.5-1.8,0-2.6C45.2,25.6,45.1,26.5,45.1,27.3z"/>
		<path id="Path_6571" class="st6" d="M41.1,40.9c1.1-2.1,2-4.3,2.8-6.6c-1,4.3-3.3,8.1-5.4,11.8c-1.4,1.6-2.3,3.6-4.2,4.7
			c-0.4,0.6-1,1.1-1.8,1.3c-0.5,1.2-2,1.4-2.8,2.3c-0.6,0.9-1.8,1.1-2.7,1.6c-1.1,1.4-2.9,1.9-4.4,2.8c-1-0.4-1.2,1.1-2.1,1
			c-0.9-0.2-1.5,0.9-2.4,0.5c-1.3,1.9-4,1.8-5.7,3c-1,0.6-2.3,0-3.3,0.6c-0.4,0.1-0.8,0.5-1.3,0.4C7.2,64,8.4,63,7.5,62.8
			c-1.1,0.1-0.7,1.6-1.7,1.7c-1.3,0.4-1.6-1.4-2.9-1.1c1.9,0.2,3.6-0.8,5.4-0.7c2.6-0.6,5.2-1,7.6-2.2c1.4-0.3,2.8-0.7,4.1-1.4
			C28.8,55.5,36.2,49.1,41.1,40.9z"/>
		<path id="Path_6572" class="st6" d="M21.1,55c0-0.3,0.2-0.4,0.5-0.4c0,0,0.1,0,0.1,0C21.6,54.8,21.3,55,21.1,55z"/>
		<path id="Path_6573" class="st6" d="M0.7,64.2c0.5-0.1,1.5,0.3,0.9,0.9c-0.3,0-1.7,0.6-1.6-0.2C0.1,64.6,0.4,64.4,0.7,64.2z"/>
	</g>
	<g id="Group_1472" transform="translate(361.774 338.451)">
		<path id="Path_6574" class="st13" d="M10.4,14.2c2.2,0.6,4.2,1.8,5.9,3.4c1.2,1.5,1.9,3.4,1.8,5.3c0,3.2-1.6,5.9-4.7,8.1h-0.5
			c-0.3,0.3-0.5,0.5-0.8,0.7c-0.2,0.1-0.3,0.2-0.5,0.3c-0.1,0-0.1-0.1-0.2-0.2c0,0.1-0.2,0.2-0.5,0.4c-0.7,0.3-1.4,0.4-2.1,0.5
			C7.6,32.9,7,33,7,33c-0.2,0-0.4,0-0.5,0L6,33.4l-0.7-0.2c-0.2,0.1-0.4,0.2-0.6,0.2c-0.2,0-0.3,0-0.5-0.1c-0.4,0-1.1,0.1-2,0.1
			c-0.7,0-1.4,0-2.2,0.1c0.1-0.3,0.2-0.6,0.1-0.9l0-0.8l0.3-2.5c0.1-0.8,0.2-1.7,0.2-2.6s0.1-1.7,0.1-2.6s0-1.8,0-2.9v-1.6l0.2-9.1
			C1,8.5,0.9,6.4,0.6,4.3C0.4,3.5,0.3,2.7,0.2,1.8c0-0.9,0.6-1.4,1.8-1.4L2.4,0c0.4,0.3,0.9,0.5,1.3,0.6C6,0.7,8.2,1,10.3,1.4
			c1.4,0.3,2.6,1,3.5,2.1c0.8,1.2,1.2,2.6,1.2,4v0.3C14.5,10.1,13,12.2,10.4,14.2z M7.2,31.8c0.2,0,0.4,0.1,0.7,0
			c1.2-0.1,2.4-0.5,3.4-1.2c1.3-0.8,2.4-1.9,3.1-3.3c0.7-1.3,1.1-2.8,1.1-4.3c0-1.9-0.9-3.6-2.3-4.8c-1.8-1.4-4-2.3-6.3-2.3
			c-0.1,0.1-0.3,0.2-0.7,0.5c-0.3-0.4-0.8-0.7-1.4-0.7c-1,0-1.5,0.8-1.5,2.4l0,1.8c0,0.5-0.1,1-0.1,1.5c-0.1,0.4-0.1,0.8-0.1,1.2
			c0,0.4,0,0.8,0.1,1.2c0.1,0.6,0.1,1,0.1,1.3c0,0.4,0,1-0.1,1.7s-0.1,1.3-0.1,1.6c0,0.3,0,0.6,0.1,0.9l0.1,0.6l-0.1,0.6
			c0,0.7,0.5,1.1,1.4,1.1c0.4,0,0.7,0.1,1,0.2c0.3,0.1,0.6,0.2,0.9,0.2L7.2,31.8z M7.1,13.5c0.2,0,0.4-0.1,0.5,0l0.6,0
			c0.4,0,1.1-0.6,2.1-1.7c1-1,1.5-2.3,1.6-3.6c0-0.5,0-0.9-0.1-1.4c-0.1-0.4-0.2-0.9-0.4-1.3c-0.2-0.4-0.4-0.8-0.7-1.2
			c-0.2-0.4-0.5-0.7-0.9-1C9.7,3.3,9.4,3.1,9.1,3L6.8,2.3C6.4,2.2,5.9,2.1,5.4,2C4.6,1.9,4,2.4,3.7,3.1C3.4,4.3,3.3,5.6,3.4,6.8
			l0.2,4.9c0,0.7,0,1.4,0.1,2.1c0.1,0.3,0.3,0.6,0.7,0.5l0.3,0l0.5,0.1c0.3,0,0.6-0.1,0.8-0.4l0.5,0L7,14L7.1,13.5z"/>
		<path id="Path_6575" class="st13" d="M35.6,14.2c2.2,0.6,4.2,1.8,5.9,3.4c1.2,1.5,1.9,3.4,1.8,5.3c0,3.2-1.6,5.9-4.7,8.1h-0.5
			c-0.3,0.3-0.5,0.5-0.8,0.7c-0.2,0.1-0.3,0.2-0.5,0.3c-0.1,0-0.1-0.1-0.2-0.2c0,0.1-0.2,0.2-0.5,0.4c-0.7,0.3-1.4,0.4-2.1,0.5
			c-1.1,0.2-1.6,0.3-1.6,0.3c-0.2,0-0.4,0-0.5,0l-0.5,0.5l-0.7-0.2c-0.2,0.1-0.4,0.2-0.6,0.2c-0.2,0-0.3,0-0.5-0.1
			c-0.4,0-1.1,0.1-2,0.1c-0.7,0-1.4,0-2.2,0.1c0.1-0.3,0.2-0.6,0.1-0.9l0-0.8l0.3-2.5c0.1-0.8,0.2-1.7,0.2-2.6s0.1-1.7,0.1-2.6
			s0-1.8,0-2.9v-1.6l0.2-9.1c0.1-2.1-0.1-4.2-0.4-6.3c-0.2-0.8-0.3-1.6-0.4-2.4c0-0.9,0.6-1.4,1.8-1.4L27.6,0
			C28,0.3,28.5,0.5,29,0.6c2.2,0.1,4.4,0.3,6.5,0.8c1.4,0.3,2.6,1,3.5,2.1c0.8,1.2,1.2,2.6,1.2,4v0.3C39.7,10.1,38.2,12.2,35.6,14.2
			z M32.3,31.8c0.2,0,0.4,0.1,0.7,0c1.2-0.1,2.4-0.5,3.4-1.2c1.3-0.8,2.4-1.9,3.1-3.3c0.7-1.3,1.1-2.8,1.1-4.3
			c0-1.9-0.9-3.6-2.3-4.8c-1.8-1.4-4-2.3-6.3-2.3c-0.1,0.1-0.3,0.2-0.7,0.5c-0.3-0.4-0.8-0.7-1.4-0.7c-1,0-1.5,0.8-1.5,2.4l0,1.8
			c0,0.5-0.1,1-0.1,1.5c-0.1,0.4-0.1,0.8-0.1,1.2c0,0.3,0,0.7,0.1,1.2s0.1,1,0.1,1.3c0,0.4,0,1-0.1,1.7s-0.1,1.3-0.1,1.6
			c0,0.3,0,0.6,0.1,0.9l0.1,0.6l-0.1,0.6c0,0.7,0.5,1.1,1.4,1.1c0.4,0,0.7,0.1,1,0.2c0.3,0.1,0.6,0.2,0.9,0.2L32.3,31.8z M32.3,13.5
			c0.2,0,0.4-0.1,0.5,0l0.6,0c0.4,0,1.1-0.6,2.1-1.7c1-1,1.5-2.3,1.6-3.6c0-0.9-0.2-1.8-0.5-2.6c-0.2-0.4-0.4-0.8-0.7-1.2
			c-0.2-0.4-0.5-0.7-0.9-1c-0.2-0.2-0.5-0.4-0.8-0.5L32,2.3c-0.5-0.2-1-0.3-1.4-0.3c-0.7-0.1-1.4,0.4-1.7,1.1
			c-0.3,1.2-0.4,2.5-0.4,3.7l0.2,4.9c0,0.7,0,1.4,0.1,2.1c0.1,0.3,0.3,0.6,0.7,0.5l0.3,0l0.5,0.1c0.3,0,0.6-0.1,0.8-0.4l0.5,0l0.5,0
			L32.3,13.5z"/>
	</g>
</g>
</svg>
